<svg id="Ebene_1" data-name="Ebene 1" xmlns="http://www.w3.org/2000/svg" viewBox="0 0 974.46 515.96"><defs><style>.cls-1,.cls-2,.cls-4,.cls-6,.cls-9{fill:none;}.cls-1{stroke:#000;}.cls-1,.cls-2,.cls-4,.cls-5,.cls-9{stroke-miterlimit:10;}.cls-1,.cls-2,.cls-4,.cls-9{stroke-width:2px;}.cls-2{stroke:#f15a24;}.cls-3{fill:#f15a24;}.cls-4,.cls-5{stroke:#009245;}.cls-5{fill:#006837;}.cls-6{stroke:#979797;stroke-linecap:square;stroke-width:4px;}.cls-7{fill:#d8d8d8;}.cls-8{fill:#009245;}.cls-9{stroke:#22b573;}.cls-10{fill:#22b573;}</style></defs><rect class="cls-1" x="391.23" y="1" width="113" height="41"/><path d="M538,65.65h6.53V67h-5v4h4.59v1.3h-4.59v5.49H538Z" transform="translate(-130 -51)"/><path d="M554.07,73.35A4.26,4.26,0,0,1,549.73,78a4.14,4.14,0,0,1-4.18-4.48c0-2.92,1.91-4.63,4.32-4.63A4.13,4.13,0,0,1,554.07,73.35Zm-6.92.09c0,1.91,1.1,3.35,2.65,3.35s2.65-1.42,2.65-3.38c0-1.48-.74-3.35-2.62-3.35S547.15,71.79,547.15,73.44Z" transform="translate(-130 -51)"/><path d="M564,73.35A4.26,4.26,0,0,1,559.61,78a4.14,4.14,0,0,1-4.18-4.48c0-2.92,1.91-4.63,4.32-4.63S564,70.69,564,73.35Zm-6.92.09c0,1.91,1.1,3.35,2.65,3.35s2.65-1.42,2.65-3.38c0-1.48-.74-3.35-2.61-3.35S557,71.79,557,73.44Z" transform="translate(-130 -51)"/><path d="M565.78,75.87a5.48,5.48,0,0,0,2.81.8c1.6,0,2.54-.85,2.54-2.07s-.65-1.79-2.29-2.42c-2-.7-3.2-1.73-3.2-3.44,0-1.89,1.56-3.29,3.92-3.29a5.6,5.6,0,0,1,2.69.59l-.44,1.28a4.87,4.87,0,0,0-2.3-.57c-1.66,0-2.29,1-2.29,1.81,0,1.14.74,1.7,2.41,2.34,2.06.8,3.1,1.79,3.1,3.57S571.35,78,568.48,78a6.24,6.24,0,0,1-3.09-.77Z" transform="translate(-130 -51)"/><path d="M575.81,73.71a2.79,2.79,0,0,0,3,3,5.75,5.75,0,0,0,2.41-.45l.27,1.13a7.09,7.09,0,0,1-2.9.54,4,4,0,0,1-4.28-4.39c0-2.63,1.54-4.7,4.08-4.7,2.85,0,3.6,2.5,3.6,4.11a5.63,5.63,0,0,1-.05.73Zm4.64-1.13A2.25,2.25,0,0,0,578.26,70a2.62,2.62,0,0,0-2.43,2.58Z" transform="translate(-130 -51)"/><path d="M583.94,71.79c0-1,0-1.91-.07-2.72h1.39l0,1.71h.07a2.62,2.62,0,0,1,2.42-1.91,2.06,2.06,0,0,1,.45,0v1.5a2.17,2.17,0,0,0-2.67,2,5.32,5.32,0,0,0-.07.74v4.64h-1.57Z" transform="translate(-130 -51)"/><path d="M590.89,69.07,592.6,74a21.68,21.68,0,0,1,.7,2.23h.06c.2-.72.45-1.44.74-2.23l1.69-4.9h1.66L594,77.78h-1.51l-3.31-8.71Z" transform="translate(-130 -51)"/><path d="M600.7,66.62a1,1,0,0,1-2,0,1,1,0,0,1,1-1A.94.94,0,0,1,600.7,66.62Zm-1.76,11.16V69.07h1.58v8.71Z" transform="translate(-130 -51)"/><path d="M609.36,77.46a5.91,5.91,0,0,1-2.5.5,4.14,4.14,0,0,1-4.34-4.44,4.42,4.42,0,0,1,4.68-4.63,5.27,5.27,0,0,1,2.2.45L609,70.56a3.78,3.78,0,0,0-1.84-.41,3.28,3.28,0,0,0-.05,6.55,4.45,4.45,0,0,0,1.94-.43Z" transform="translate(-130 -51)"/><path d="M612,73.71a2.79,2.79,0,0,0,3,3,5.78,5.78,0,0,0,2.41-.45l.27,1.13a7.09,7.09,0,0,1-2.9.54,4,4,0,0,1-4.29-4.39c0-2.63,1.55-4.7,4.09-4.7,2.85,0,3.6,2.5,3.6,4.11a5.63,5.63,0,0,1,0,.73Zm4.64-1.13A2.25,2.25,0,0,0,614.44,70,2.64,2.64,0,0,0,612,72.58Z" transform="translate(-130 -51)"/><line class="cls-1" x1="309.73" y1="108" x2="585.23" y2="108"/><line class="cls-1" x1="309.53" y1="108" x2="309.53" y2="156"/><line class="cls-1" x1="447.48" y1="60" x2="447.48" y2="108"/><line class="cls-1" x1="585.04" y1="108" x2="585.04" y2="156"/><rect class="cls-2" x="227.23" y="156" width="165" height="41"/><path class="cls-3" d="M372.46,220.81a23,23,0,0,1,3.33-.25,7,7,0,0,1,4.92,1.51,5.59,5.59,0,0,1,1.71,4.36,6.41,6.41,0,0,1-1.75,4.71,7.45,7.45,0,0,1-5.37,1.75,25.35,25.35,0,0,1-2.84-.14ZM374,231.54a10,10,0,0,0,1.58.09c3.35,0,5.17-1.87,5.17-5.15,0-2.86-1.61-4.68-4.92-4.68A8.83,8.83,0,0,0,374,222Z" transform="translate(-130 -51)"/><path class="cls-3" d="M385.35,228.71a2.79,2.79,0,0,0,3,3,5.78,5.78,0,0,0,2.41-.45l.27,1.13a7.09,7.09,0,0,1-2.9.54,4,4,0,0,1-4.29-4.39c0-2.63,1.55-4.7,4.09-4.7,2.85,0,3.6,2.5,3.6,4.11a5.63,5.63,0,0,1,0,.73Zm4.64-1.13A2.25,2.25,0,0,0,387.8,225a2.62,2.62,0,0,0-2.43,2.58Z" transform="translate(-130 -51)"/><path class="cls-3" d="M393.64,232.78v-7.51h-1.22v-1.2h1.22v-.42a4.14,4.14,0,0,1,1-3,3,3,0,0,1,2.13-.81,3.82,3.82,0,0,1,1.35.25l-.22,1.23a2.33,2.33,0,0,0-1-.2c-1.35,0-1.69,1.19-1.69,2.52v.47h2.11v1.2h-2.11v7.51Z" transform="translate(-130 -51)"/><path class="cls-3" d="M403.56,232.78l-.12-1.1h-.06a3.22,3.22,0,0,1-2.66,1.3,2.48,2.48,0,0,1-2.67-2.5c0-2.11,1.88-3.26,5.24-3.24v-.18a1.79,1.79,0,0,0-2-2,4.33,4.33,0,0,0-2.27.65l-.36-1.05a5.5,5.5,0,0,1,2.87-.77c2.66,0,3.31,1.82,3.31,3.57v3.25a13.14,13.14,0,0,0,.14,2.09Zm-.23-4.44c-1.73,0-3.69.27-3.69,2a1.4,1.4,0,0,0,1.49,1.51,2.16,2.16,0,0,0,2.11-1.46,1.76,1.76,0,0,0,.09-.5Z" transform="translate(-130 -51)"/><path class="cls-3" d="M414.71,230.41c0,.9,0,1.69.07,2.37h-1.4l-.09-1.42h0a3.29,3.29,0,0,1-2.88,1.62c-1.37,0-3-.76-3-3.82v-5.09H409v4.82c0,1.66.5,2.78,1.94,2.78a2.3,2.3,0,0,0,2.09-1.44,2.38,2.38,0,0,0,.14-.81v-5.35h1.59Z" transform="translate(-130 -51)"/><path class="cls-3" d="M417.33,220h1.59v12.78h-1.59Z" transform="translate(-130 -51)"/><path class="cls-3" d="M423.49,221.57v2.5h2.27v1.2h-2.27V230c0,1.08.3,1.7,1.19,1.7a3.59,3.59,0,0,0,.91-.11l.08,1.19a4.06,4.06,0,0,1-1.41.21,2.2,2.2,0,0,1-1.71-.66,3.25,3.25,0,0,1-.61-2.27v-4.76h-1.35v-1.2h1.35V222Z" transform="translate(-130 -51)"/><path class="cls-3" d="M427.59,220.65h6.54V222h-5v4h4.59v1.3h-4.59v5.49h-1.57Z" transform="translate(-130 -51)"/><path class="cls-3" d="M443.63,228.35a4.26,4.26,0,0,1-4.34,4.63,4.14,4.14,0,0,1-4.17-4.48c0-2.92,1.9-4.63,4.32-4.63S443.63,225.69,443.63,228.35Zm-6.91.09c0,1.91,1.1,3.35,2.65,3.35s2.64-1.42,2.64-3.38c0-1.48-.74-3.35-2.61-3.35S436.72,226.79,436.72,228.44Z" transform="translate(-130 -51)"/><path class="cls-3" d="M453.51,228.35a4.26,4.26,0,0,1-4.34,4.63A4.14,4.14,0,0,1,445,228.5c0-2.92,1.91-4.63,4.32-4.63S453.51,225.69,453.51,228.35Zm-6.91.09c0,1.91,1.1,3.35,2.65,3.35s2.64-1.42,2.64-3.38c0-1.48-.73-3.35-2.61-3.35S446.6,226.79,446.6,228.44Z" transform="translate(-130 -51)"/><path class="cls-3" d="M455.35,230.87a5.48,5.48,0,0,0,2.81.8c1.6,0,2.54-.85,2.54-2.07s-.65-1.79-2.29-2.42c-2-.7-3.21-1.73-3.21-3.44,0-1.89,1.57-3.29,3.93-3.29a5.59,5.59,0,0,1,2.68.59l-.43,1.28a4.94,4.94,0,0,0-2.3-.57c-1.66,0-2.29,1-2.29,1.81,0,1.14.74,1.7,2.41,2.34,2.05.8,3.1,1.79,3.1,3.57s-1.39,3.49-4.25,3.49a6.32,6.32,0,0,1-3.1-.77Z" transform="translate(-130 -51)"/><path class="cls-3" d="M465.37,228.71a2.8,2.8,0,0,0,3,3,5.8,5.8,0,0,0,2.42-.45l.27,1.13a7.13,7.13,0,0,1-2.9.54,4,4,0,0,1-4.29-4.39c0-2.63,1.55-4.7,4.09-4.7,2.84,0,3.6,2.5,3.6,4.11,0,.32,0,.57-.05.73Zm4.65-1.13a2.26,2.26,0,0,0-2.2-2.58,2.63,2.63,0,0,0-2.43,2.58Z" transform="translate(-130 -51)"/><path class="cls-3" d="M473.51,226.79c0-1,0-1.91-.07-2.72h1.38l.06,1.71H475a2.62,2.62,0,0,1,2.41-1.91,2,2,0,0,1,.45,0v1.5a2.12,2.12,0,0,0-.54-.06,2.22,2.22,0,0,0-2.12,2,4.14,4.14,0,0,0-.07.74v4.64h-1.57Z" transform="translate(-130 -51)"/><path class="cls-3" d="M480.46,224.07l1.71,4.9a21.68,21.68,0,0,1,.7,2.23h.05c.2-.72.46-1.44.74-2.23l1.7-4.9H487l-3.42,8.71h-1.51l-3.31-8.71Z" transform="translate(-130 -51)"/><path class="cls-3" d="M490.27,221.62a1,1,0,0,1-2,0,1,1,0,0,1,1-1A.94.94,0,0,1,490.27,221.62Zm-1.77,11.16v-8.71h1.59v8.71Z" transform="translate(-130 -51)"/><path class="cls-3" d="M498.93,232.46a6,6,0,0,1-2.51.5,4.13,4.13,0,0,1-4.33-4.44,4.42,4.42,0,0,1,4.68-4.63,5.21,5.21,0,0,1,2.19.45l-.36,1.22a3.71,3.71,0,0,0-1.83-.41,3.28,3.28,0,0,0-.06,6.55,4.5,4.5,0,0,0,2-.43Z" transform="translate(-130 -51)"/><path class="cls-3" d="M501.55,228.71a2.8,2.8,0,0,0,3,3,5.8,5.8,0,0,0,2.42-.45l.27,1.13a7.13,7.13,0,0,1-2.9.54,4,4,0,0,1-4.29-4.39c0-2.63,1.55-4.7,4.09-4.7,2.84,0,3.6,2.5,3.6,4.11,0,.32,0,.57-.05.73Zm4.65-1.13A2.26,2.26,0,0,0,504,225a2.63,2.63,0,0,0-2.43,2.58Z" transform="translate(-130 -51)"/><path class="cls-3" d="M311.58,554.31a23,23,0,0,1,3.33-.25,6.93,6.93,0,0,1,4.91,1.51,5.59,5.59,0,0,1,1.71,4.36,6.41,6.41,0,0,1-1.74,4.71,7.47,7.47,0,0,1-5.37,1.75,25.35,25.35,0,0,1-2.84-.14ZM313.14,565a10.26,10.26,0,0,0,1.59.09c3.35,0,5.17-1.87,5.17-5.15,0-2.86-1.61-4.68-4.92-4.68a9,9,0,0,0-1.84.16Z" transform="translate(-130 -51)"/><path class="cls-3" d="M324.47,562.21a2.78,2.78,0,0,0,3,3,5.8,5.8,0,0,0,2.42-.45l.27,1.13a7.13,7.13,0,0,1-2.9.54,4,4,0,0,1-4.29-4.39c0-2.63,1.55-4.7,4.09-4.7,2.84,0,3.6,2.5,3.6,4.11,0,.32,0,.57-.05.73Zm4.64-1.13a2.26,2.26,0,0,0-2.2-2.58,2.63,2.63,0,0,0-2.43,2.58Z" transform="translate(-130 -51)"/><path class="cls-3" d="M332.76,566.28v-7.51h-1.22v-1.2h1.22v-.42a4.1,4.1,0,0,1,1-3,3.08,3.08,0,0,1,2.13-.81,3.86,3.86,0,0,1,1.35.25l-.22,1.23a2.33,2.33,0,0,0-1-.2c-1.35,0-1.69,1.19-1.69,2.52v.47h2.11v1.2h-2.11v7.51Z" transform="translate(-130 -51)"/><path class="cls-3" d="M342.68,566.28l-.12-1.1h-.06a3.22,3.22,0,0,1-2.66,1.3,2.48,2.48,0,0,1-2.67-2.5c0-2.11,1.88-3.26,5.24-3.24v-.18a1.8,1.8,0,0,0-2-2,4.33,4.33,0,0,0-2.27.65l-.36-1.05a5.5,5.5,0,0,1,2.87-.77c2.66,0,3.31,1.82,3.31,3.57v3.25a12.06,12.06,0,0,0,.14,2.09Zm-.23-4.44c-1.73,0-3.69.27-3.69,2a1.4,1.4,0,0,0,1.49,1.51,2.16,2.16,0,0,0,2.11-1.46,1.76,1.76,0,0,0,.09-.5Z" transform="translate(-130 -51)"/><path class="cls-3" d="M353.82,563.91c0,.9,0,1.69.08,2.37h-1.41l-.09-1.42h0a3.3,3.3,0,0,1-2.88,1.62c-1.37,0-3-.76-3-3.82v-5.09h1.58v4.82c0,1.66.51,2.78,1.95,2.78a2.3,2.3,0,0,0,2.09-1.44,2.38,2.38,0,0,0,.14-.81v-5.35h1.58Z" transform="translate(-130 -51)"/><path class="cls-3" d="M356.45,553.5H358v12.78h-1.59Z" transform="translate(-130 -51)"/><path class="cls-3" d="M362.61,555.07v2.5h2.27v1.2h-2.27v4.7c0,1.08.3,1.7,1.19,1.7a3.59,3.59,0,0,0,.91-.11l.08,1.19a4.1,4.1,0,0,1-1.41.21,2.2,2.2,0,0,1-1.71-.66,3.25,3.25,0,0,1-.61-2.27v-4.76h-1.35v-1.2h1.35v-2.09Z" transform="translate(-130 -51)"/><rect class="cls-4" x="503.23" y="156" width="165" height="41"/><path class="cls-5" d="M665.77,227.45c-.09-1.69-.2-3.72-.18-5.24h-.05c-.42,1.43-.92,2.94-1.54,4.61l-2.14,5.89h-1.19l-2-5.78c-.58-1.71-1.06-3.28-1.4-4.72h0c0,1.52-.13,3.55-.23,5.37l-.33,5.2h-1.49l.84-12.13h2l2.07,5.87c.51,1.49.92,2.82,1.23,4.08h0c.31-1.22.74-2.55,1.28-4.08l2.16-5.87h2l.76,12.13h-1.53Z" transform="translate(-130 -51)"/><path class="cls-5" d="M678,228.35a4.26,4.26,0,0,1-4.34,4.63,4.14,4.14,0,0,1-4.17-4.48c0-2.92,1.91-4.63,4.32-4.63S678,225.69,678,228.35Zm-6.91.09c0,1.91,1.1,3.35,2.65,3.35s2.64-1.42,2.64-3.38c0-1.48-.73-3.35-2.61-3.35S671,226.79,671,228.44Z" transform="translate(-130 -51)"/><path class="cls-5" d="M686.16,232.46a5.91,5.91,0,0,1-2.5.5,4.14,4.14,0,0,1-4.34-4.44,4.43,4.43,0,0,1,4.68-4.63,5.23,5.23,0,0,1,2.2.45l-.36,1.22a3.75,3.75,0,0,0-1.84-.41,3.28,3.28,0,0,0,0,6.55,4.45,4.45,0,0,0,1.94-.43Z" transform="translate(-130 -51)"/><path class="cls-5" d="M689.58,228.07h0c.21-.31.52-.69.77-1l2.56-3h1.91l-3.37,3.58,3.83,5.13H693.4l-3-4.17-.81.9v3.27H688V220h1.57Z" transform="translate(-130 -51)"/><path class="cls-5" d="M696.51,220.65h6.54V222h-5v4h4.59v1.3h-4.59v5.49h-1.57Z" transform="translate(-130 -51)"/><path class="cls-5" d="M712.55,228.35a4.26,4.26,0,0,1-4.34,4.63A4.14,4.14,0,0,1,704,228.5c0-2.92,1.91-4.63,4.33-4.63S712.55,225.69,712.55,228.35Zm-6.91.09c0,1.91,1.09,3.35,2.64,3.35s2.65-1.42,2.65-3.38c0-1.48-.74-3.35-2.61-3.35S705.64,226.79,705.64,228.44Z" transform="translate(-130 -51)"/><path class="cls-5" d="M722.43,228.35a4.26,4.26,0,0,1-4.34,4.63,4.14,4.14,0,0,1-4.17-4.48c0-2.92,1.9-4.63,4.32-4.63S722.43,225.69,722.43,228.35Zm-6.91.09c0,1.91,1.1,3.35,2.65,3.35s2.64-1.42,2.64-3.38c0-1.48-.74-3.35-2.61-3.35S715.52,226.79,715.52,228.44Z" transform="translate(-130 -51)"/><path class="cls-5" d="M724.27,230.87a5.44,5.44,0,0,0,2.8.8c1.61,0,2.54-.85,2.54-2.07s-.65-1.79-2.28-2.42c-2-.7-3.21-1.73-3.21-3.44,0-1.89,1.57-3.29,3.93-3.29a5.59,5.59,0,0,1,2.68.59l-.43,1.28a5,5,0,0,0-2.31-.57c-1.65,0-2.28,1-2.28,1.81,0,1.14.73,1.7,2.41,2.34,2,.8,3.1,1.79,3.1,3.57S729.83,233,727,233a6.32,6.32,0,0,1-3.1-.77Z" transform="translate(-130 -51)"/><path class="cls-5" d="M734.29,228.71a2.8,2.8,0,0,0,3,3,5.71,5.71,0,0,0,2.41-.45l.27,1.13a7.06,7.06,0,0,1-2.9.54,4,4,0,0,1-4.28-4.39c0-2.63,1.55-4.7,4.09-4.7,2.84,0,3.6,2.5,3.6,4.11a5.28,5.28,0,0,1-.06.73Zm4.65-1.13a2.26,2.26,0,0,0-2.2-2.58,2.63,2.63,0,0,0-2.43,2.58Z" transform="translate(-130 -51)"/><path class="cls-5" d="M742.43,226.79c0-1,0-1.91-.07-2.72h1.38l.06,1.71h.07a2.61,2.61,0,0,1,2.41-1.91,2,2,0,0,1,.45,0v1.5a2.12,2.12,0,0,0-.54-.06,2.21,2.21,0,0,0-2.12,2,4.09,4.09,0,0,0-.08.74v4.64h-1.56Z" transform="translate(-130 -51)"/><path class="cls-5" d="M749.38,224.07l1.71,4.9c.28.79.52,1.51.7,2.23h.05c.2-.72.45-1.44.74-2.23l1.69-4.9h1.66l-3.42,8.71H751l-3.32-8.71Z" transform="translate(-130 -51)"/><path class="cls-5" d="M759.19,221.62a1,1,0,0,1-2,0,1,1,0,0,1,1-1A.94.94,0,0,1,759.19,221.62Zm-1.77,11.16v-8.71H759v8.71Z" transform="translate(-130 -51)"/><path class="cls-5" d="M767.84,232.46a5.91,5.91,0,0,1-2.5.5,4.14,4.14,0,0,1-4.34-4.44,4.43,4.43,0,0,1,4.68-4.63,5.23,5.23,0,0,1,2.2.45l-.36,1.22a3.75,3.75,0,0,0-1.84-.41,3.28,3.28,0,0,0,0,6.55,4.45,4.45,0,0,0,1.94-.43Z" transform="translate(-130 -51)"/><path class="cls-5" d="M770.47,228.71a2.8,2.8,0,0,0,3,3,5.75,5.75,0,0,0,2.41-.45l.27,1.13a7.09,7.09,0,0,1-2.9.54,4,4,0,0,1-4.28-4.39c0-2.63,1.55-4.7,4.09-4.7,2.84,0,3.6,2.5,3.6,4.11a5.28,5.28,0,0,1-.06.73Zm4.65-1.13a2.27,2.27,0,0,0-2.2-2.58,2.63,2.63,0,0,0-2.43,2.58Z" transform="translate(-130 -51)"/><path class="cls-5" d="M802.21,555.48h-3.69v-1.33h9v1.33H803.8v10.8h-1.59Z" transform="translate(-130 -51)"/><path class="cls-5" d="M808.41,562.21a2.79,2.79,0,0,0,3,3,5.78,5.78,0,0,0,2.41-.45l.27,1.13a7.09,7.09,0,0,1-2.9.54,4,4,0,0,1-4.29-4.39c0-2.63,1.55-4.7,4.09-4.7,2.85,0,3.6,2.5,3.6,4.11a5.63,5.63,0,0,1-.05.73Zm4.64-1.13a2.25,2.25,0,0,0-2.19-2.58,2.64,2.64,0,0,0-2.44,2.58Z" transform="translate(-130 -51)"/><path class="cls-5" d="M816.33,564.66a4.06,4.06,0,0,0,2.08.63c1.16,0,1.7-.57,1.7-1.29s-.45-1.17-1.62-1.61c-1.57-.55-2.31-1.42-2.31-2.46,0-1.41,1.14-2.56,3-2.56a4.34,4.34,0,0,1,2.14.54l-.4,1.15a3.44,3.44,0,0,0-1.78-.5c-.93,0-1.46.54-1.46,1.19s.53,1,1.66,1.47c1.51.58,2.29,1.34,2.29,2.63,0,1.53-1.19,2.61-3.26,2.61a5,5,0,0,1-2.45-.59Z" transform="translate(-130 -51)"/><path class="cls-5" d="M825.58,555.07v2.5h2.27v1.2h-2.27v4.7c0,1.08.3,1.7,1.19,1.7a3.59,3.59,0,0,0,.91-.11l.08,1.19a4.1,4.1,0,0,1-1.41.21,2.2,2.2,0,0,1-1.71-.66,3.25,3.25,0,0,1-.61-2.27v-4.76h-1.35v-1.2H824v-2.09Z" transform="translate(-130 -51)"/><polygon class="cls-1" points="447.23 43 433.23 60 462.23 60 447.23 43"/><g id="Page-1"><g id="A4"><g id="Group"><g id="layer"><line id="Line" class="cls-6" x1="146.78" y1="350.31" x2="213.18" y2="295.39"/><ellipse id="Oval-Copy" class="cls-7" cx="146.78" cy="350.31" rx="13.97" ry="14.27"/><line id="Line-2" class="cls-6" x1="213.18" y1="295.39" x2="280.11" y2="350.31"/><ellipse id="Oval" class="cls-7" cx="213.18" cy="295.39" rx="13.97" ry="14.27"/><ellipse id="Oval-Copy-2" class="cls-7" cx="280.11" cy="350.31" rx="13.97" ry="14.27"/></g><g id="layer-2" data-name="layer"><line id="Line-2-2" data-name="Line" class="cls-6" x1="80.37" y1="404.69" x2="146.78" y2="349.77"/><ellipse id="Oval-Copy-2-2" data-name="Oval-Copy" class="cls-7" cx="80.37" cy="404.69" rx="13.97" ry="14.27"/><line id="Line-2-3" data-name="Line-2" class="cls-6" x1="146.78" y1="349.77" x2="213.71" y2="404.69"/><ellipse id="Oval-2" data-name="Oval" class="cls-7" cx="146.78" cy="349.77" rx="13.97" ry="14.27"/><ellipse id="Oval-Copy-2-3" data-name="Oval-Copy-2" class="cls-7" cx="213.71" cy="404.69" rx="13.97" ry="14.27"/></g><g id="layer-3" data-name="layer"><ellipse id="Oval-Copy-3" data-name="Oval-Copy" class="cls-7" cx="213.71" cy="404.69" rx="13.97" ry="14.27"/><line id="Line-2-4" data-name="Line-2" class="cls-6" x1="280.11" y1="349.77" x2="347.05" y2="404.69"/><ellipse id="Oval-3" data-name="Oval" class="cls-7" cx="280.11" cy="349.77" rx="13.97" ry="14.27"/><ellipse id="Oval-Copy-2-4" data-name="Oval-Copy-2" class="cls-7" cx="347.05" cy="404.69" rx="13.97" ry="14.27"/></g><g id="layer-4" data-name="layer"><line id="Line-3" data-name="Line" class="cls-6" x1="13.97" y1="459.61" x2="80.37" y2="404.69"/><ellipse id="Oval-Copy-4" data-name="Oval-Copy" class="cls-7" cx="13.97" cy="459.61" rx="13.97" ry="14.27"/><line id="Line-2-5" data-name="Line-2" class="cls-6" x1="80.37" y1="404.69" x2="147.3" y2="459.61"/><ellipse id="Oval-4" data-name="Oval" class="cls-7" cx="80.37" cy="404.69" rx="13.97" ry="14.27"/><ellipse id="Oval-Copy-2-5" data-name="Oval-Copy-2" class="cls-7" cx="147.3" cy="459.61" rx="13.97" ry="14.27"/></g><g id="layer-5" data-name="layer"><ellipse id="Oval-Copy-5" data-name="Oval-Copy" class="cls-7" cx="147.3" cy="459.61" rx="13.97" ry="14.27"/><ellipse id="Oval-5" data-name="Oval" class="cls-7" cx="213.71" cy="404.69" rx="13.97" ry="14.27"/><ellipse id="Oval-Copy-2-6" data-name="Oval-Copy-2" class="cls-7" cx="280.64" cy="459.61" rx="13.97" ry="14.27"/></g><g id="layer-6" data-name="layer"><line id="Line-4" data-name="Line" class="cls-6" x1="281.7" y1="459.61" x2="348.1" y2="404.69"/><ellipse id="Oval-Copy-6" data-name="Oval-Copy" class="cls-7" cx="281.7" cy="459.61" rx="13.97" ry="14.27"/><line id="Line-2-6" data-name="Line-2" class="cls-6" x1="348.1" y1="404.69" x2="415.03" y2="459.61"/><ellipse id="Oval-6" data-name="Oval" class="cls-7" cx="348.1" cy="404.69" rx="13.97" ry="14.27"/><ellipse id="Oval-Copy-2-7" data-name="Oval-Copy-2" class="cls-7" cx="415.03" cy="459.61" rx="13.97" ry="14.27"/></g></g></g></g><g id="Page-1-2" data-name="Page-1"><g id="A4-2" data-name="A4"><g id="Group-2" data-name="Group"><g id="layer-7" data-name="layer"><line id="Line-5" data-name="Line" class="cls-6" x1="620.78" y1="350.31" x2="687.18" y2="295.39"/><ellipse id="Oval-Copy-7" data-name="Oval-Copy" class="cls-7" cx="620.78" cy="350.31" rx="13.97" ry="14.27"/><line id="Line-2-7" data-name="Line-2" class="cls-6" x1="687.18" y1="295.39" x2="754.11" y2="350.31"/><ellipse id="Oval-7" data-name="Oval" class="cls-7" cx="687.18" cy="295.39" rx="13.97" ry="14.27"/><ellipse id="Oval-Copy-2-8" data-name="Oval-Copy-2" class="cls-7" cx="754.11" cy="350.31" rx="13.97" ry="14.27"/></g><g id="layer-8" data-name="layer"><line id="Line-6" data-name="Line" class="cls-6" x1="554.37" y1="404.69" x2="620.78" y2="349.77"/><ellipse id="Oval-Copy-8" data-name="Oval-Copy" class="cls-7" cx="554.37" cy="404.69" rx="13.97" ry="14.27"/><line id="Line-2-8" data-name="Line-2" class="cls-6" x1="620.78" y1="349.77" x2="687.71" y2="404.69"/><ellipse id="Oval-8" data-name="Oval" class="cls-7" cx="620.78" cy="349.77" rx="13.97" ry="14.27"/><ellipse id="Oval-Copy-2-9" data-name="Oval-Copy-2" class="cls-7" cx="687.71" cy="404.69" rx="13.97" ry="14.27"/></g><g id="layer-9" data-name="layer"><ellipse id="Oval-Copy-9" data-name="Oval-Copy" class="cls-7" cx="687.71" cy="404.69" rx="13.97" ry="14.27"/><line id="Line-2-9" data-name="Line-2" class="cls-6" x1="754.11" y1="349.77" x2="821.05" y2="404.69"/><ellipse id="Oval-9" data-name="Oval" class="cls-7" cx="754.11" cy="349.77" rx="13.97" ry="14.27"/><ellipse id="Oval-Copy-2-10" data-name="Oval-Copy-2" class="cls-7" cx="821.05" cy="404.69" rx="13.97" ry="14.27"/></g><g id="layer-10" data-name="layer"><line id="Line-7" data-name="Line" class="cls-6" x1="487.97" y1="459.61" x2="554.37" y2="404.69"/><ellipse id="Oval-Copy-10" data-name="Oval-Copy" class="cls-7" cx="487.97" cy="459.61" rx="13.97" ry="14.27"/><line id="Line-2-10" data-name="Line-2" class="cls-6" x1="554.37" y1="404.69" x2="621.3" y2="459.61"/><ellipse id="Oval-10" data-name="Oval" class="cls-7" cx="554.37" cy="404.69" rx="13.97" ry="14.27"/><ellipse id="Oval-Copy-2-11" data-name="Oval-Copy-2" class="cls-7" cx="621.3" cy="459.61" rx="13.97" ry="14.27"/></g><g id="layer-11" data-name="layer"><ellipse id="Oval-Copy-11" data-name="Oval-Copy" class="cls-7" cx="621.3" cy="459.61" rx="13.97" ry="14.27"/><ellipse id="Oval-11" data-name="Oval" class="cls-7" cx="687.71" cy="404.69" rx="13.97" ry="14.27"/><ellipse id="Oval-Copy-2-12" data-name="Oval-Copy-2" class="cls-7" cx="754.64" cy="459.61" rx="13.97" ry="14.27"/></g><g id="layer-12" data-name="layer"><line id="Line-8" data-name="Line" class="cls-6" x1="755.7" y1="459.61" x2="822.1" y2="404.69"/><ellipse id="Oval-Copy-12" data-name="Oval-Copy" class="cls-7" cx="755.7" cy="459.61" rx="13.97" ry="14.27"/><line id="Line-2-11" data-name="Line-2" class="cls-6" x1="822.1" y1="404.69" x2="889.03" y2="459.61"/><ellipse id="Oval-12" data-name="Oval" class="cls-7" cx="822.1" cy="404.69" rx="13.97" ry="14.27"/><ellipse id="Oval-Copy-2-13" data-name="Oval-Copy-2" class="cls-7" cx="889.03" cy="459.61" rx="13.97" ry="14.27"/></g></g></g></g><path d="M150.19,309.72l8.35-4.3v1.24l-7,3.53v0l7,3.53V315l-8.35-4.3Z" transform="translate(-130 -51)"/><path d="M161.1,302.86h6.53v1.32h-5v4h4.59v1.3h-4.59V315H161.1Z" transform="translate(-130 -51)"/><path d="M177.14,310.57a4.27,4.27,0,0,1-4.34,4.63,4.15,4.15,0,0,1-4.18-4.49,4.25,4.25,0,0,1,4.32-4.62A4.13,4.13,0,0,1,177.14,310.57Zm-6.92.09c0,1.91,1.1,3.35,2.65,3.35s2.65-1.42,2.65-3.39c0-1.47-.74-3.34-2.61-3.34S170.22,309,170.22,310.66Z" transform="translate(-130 -51)"/><path d="M187,310.57a4.26,4.26,0,0,1-4.34,4.63,4.15,4.15,0,0,1-4.18-4.49,4.25,4.25,0,0,1,4.32-4.62C185.33,306.09,187,307.91,187,310.57Zm-6.92.09c0,1.91,1.1,3.35,2.65,3.35s2.65-1.42,2.65-3.39c0-1.47-.74-3.34-2.61-3.34S180.1,309,180.1,310.66Z" transform="translate(-130 -51)"/><path d="M188.85,313.09a5.57,5.57,0,0,0,2.81.79c1.6,0,2.54-.84,2.54-2.07s-.65-1.78-2.29-2.41c-2-.7-3.2-1.73-3.2-3.44,0-1.89,1.56-3.29,3.92-3.29a5.49,5.49,0,0,1,2.69.59l-.44,1.28a4.73,4.73,0,0,0-2.3-.58c-1.66,0-2.29,1-2.29,1.82,0,1.14.74,1.69,2.42,2.34,2,.79,3.09,1.78,3.09,3.57s-1.38,3.49-4.25,3.49a6.24,6.24,0,0,1-3.09-.77Z" transform="translate(-130 -51)"/><path d="M198.88,310.93a2.79,2.79,0,0,0,3,3,5.75,5.75,0,0,0,2.41-.45l.27,1.13a7.09,7.09,0,0,1-2.9.54,4,4,0,0,1-4.28-4.39c0-2.63,1.54-4.7,4.08-4.7,2.85,0,3.6,2.5,3.6,4.1a5.67,5.67,0,0,1-.05.74Zm4.64-1.13a2.25,2.25,0,0,0-2.19-2.58,2.62,2.62,0,0,0-2.43,2.58Z" transform="translate(-130 -51)"/><path d="M207,309c0-1,0-1.9-.07-2.71h1.39l0,1.71h.07a2.62,2.62,0,0,1,2.42-1.91,2.06,2.06,0,0,1,.45.05v1.5a2.17,2.17,0,0,0-.54-.06,2.23,2.23,0,0,0-2.13,2,5,5,0,0,0-.07.73V315H207Z" transform="translate(-130 -51)"/><path d="M214,306.29l1.71,4.89c.29.79.52,1.52.71,2.24h.05c.2-.72.45-1.45.74-2.24l1.69-4.89h1.66L217.1,315h-1.52l-3.31-8.71Z" transform="translate(-130 -51)"/><path d="M223.77,303.84a1,1,0,0,1-2,0,1,1,0,0,1,1-1A.94.94,0,0,1,223.77,303.84ZM222,315v-8.71h1.58V315Z" transform="translate(-130 -51)"/><path d="M232.43,314.68a5.91,5.91,0,0,1-2.5.5,4.14,4.14,0,0,1-4.34-4.45,4.43,4.43,0,0,1,4.68-4.62,5.23,5.23,0,0,1,2.2.45l-.36,1.22a3.64,3.64,0,0,0-1.84-.41,3.28,3.28,0,0,0-.05,6.55,4.45,4.45,0,0,0,1.94-.43Z" transform="translate(-130 -51)"/><path d="M235.06,310.93a2.79,2.79,0,0,0,3,3,5.75,5.75,0,0,0,2.41-.45l.27,1.13a7.09,7.09,0,0,1-2.9.54,4,4,0,0,1-4.28-4.39c0-2.63,1.54-4.7,4.08-4.7,2.85,0,3.6,2.5,3.6,4.1a5.67,5.67,0,0,1,0,.74Zm4.64-1.13a2.25,2.25,0,0,0-2.19-2.58,2.62,2.62,0,0,0-2.43,2.58Z" transform="translate(-130 -51)"/><path d="M243.25,303a17.49,17.49,0,0,1,3-.24,5,5,0,0,1,3.41,1,3.29,3.29,0,0,1,1.06,2.54,3.53,3.53,0,0,1-.94,2.59,5,5,0,0,1-3.71,1.34,5.42,5.42,0,0,1-1.26-.11V315h-1.56Zm1.56,5.85a5.32,5.32,0,0,0,1.3.13c1.89,0,3-.92,3-2.6S248,304,246.29,304a6.87,6.87,0,0,0-1.48.12Z" transform="translate(-130 -51)"/><path d="M252.48,309c0-1,0-1.9-.07-2.71h1.39l0,1.71h.07a2.62,2.62,0,0,1,2.41-1.91,2,2,0,0,1,.45.05v1.5a2.12,2.12,0,0,0-.54-.06,2.23,2.23,0,0,0-2.12,2,3.93,3.93,0,0,0-.07.73V315h-1.57Z" transform="translate(-130 -51)"/><path d="M266.07,310.57a4.26,4.26,0,0,1-4.34,4.63,4.15,4.15,0,0,1-4.17-4.49,4.25,4.25,0,0,1,4.32-4.62C264.38,306.09,266.07,307.91,266.07,310.57Zm-6.91.09c0,1.91,1.1,3.35,2.65,3.35s2.64-1.42,2.64-3.39c0-1.47-.74-3.34-2.61-3.34S259.16,309,259.16,310.66Z" transform="translate(-130 -51)"/><path d="M268.56,306.29l1.71,4.89c.28.79.52,1.52.7,2.24h0c.2-.72.45-1.45.74-2.24l1.69-4.89h1.66L271.69,315h-1.51l-3.32-8.71Z" transform="translate(-130 -51)"/><path d="M278.37,303.84a1,1,0,0,1-2,0,1,1,0,0,1,1-1A.94.94,0,0,1,278.37,303.84ZM276.6,315v-8.71h1.59V315Z" transform="translate(-130 -51)"/><path d="M288.34,302.22v10.53c0,.77,0,1.66.07,2.25H287l-.07-1.51h0a3.22,3.22,0,0,1-3,1.71c-2.11,0-3.73-1.78-3.73-4.43,0-2.9,1.79-4.68,3.91-4.68a2.93,2.93,0,0,1,2.63,1.33h0v-5.2Zm-1.58,7.61a2.44,2.44,0,0,0-.08-.66,2.33,2.33,0,0,0-2.28-1.84c-1.64,0-2.61,1.44-2.61,3.37,0,1.76.86,3.22,2.57,3.22a2.37,2.37,0,0,0,2.32-1.89,2.51,2.51,0,0,0,.08-.69Z" transform="translate(-130 -51)"/><path d="M291.85,310.93a2.79,2.79,0,0,0,3,3,5.78,5.78,0,0,0,2.41-.45l.27,1.13a7.09,7.09,0,0,1-2.9.54,4,4,0,0,1-4.29-4.39c0-2.63,1.55-4.7,4.09-4.7,2.85,0,3.6,2.5,3.6,4.1a5.67,5.67,0,0,1,0,.74Zm4.64-1.13a2.25,2.25,0,0,0-2.19-2.58,2.62,2.62,0,0,0-2.43,2.58Z" transform="translate(-130 -51)"/><path d="M300,309c0-1,0-1.9-.07-2.71h1.39l.05,1.71h.07a2.62,2.62,0,0,1,2.42-1.91,2.06,2.06,0,0,1,.45.05v1.5a2.17,2.17,0,0,0-2.67,2,5,5,0,0,0-.07.73V315H300Z" transform="translate(-130 -51)"/><path d="M309.69,309.13c0-1.12,0-2-.08-2.84H311l.07,1.49h0a3.44,3.44,0,0,1,3.1-1.69c2.11,0,3.69,1.78,3.69,4.43,0,3.13-1.91,4.68-4,4.68a3.06,3.06,0,0,1-2.68-1.37h0v4.74h-1.56Zm1.56,2.32a4.18,4.18,0,0,0,.07.65A2.46,2.46,0,0,0,313.7,314c1.67,0,2.65-1.37,2.65-3.37,0-1.75-.92-3.24-2.6-3.24a2.52,2.52,0,0,0-2.39,2,2.76,2.76,0,0,0-.11.65Z" transform="translate(-130 -51)"/><path d="M319.93,309c0-1,0-1.9-.08-2.71h1.39l.05,1.71h.08a2.61,2.61,0,0,1,2.41-1.91,2,2,0,0,1,.45.05v1.5a2.12,2.12,0,0,0-.54-.06,2.21,2.21,0,0,0-2.12,2,3.88,3.88,0,0,0-.08.73V315h-1.56Z" transform="translate(-130 -51)"/><path d="M333.52,310.57a4.26,4.26,0,0,1-4.34,4.63,4.15,4.15,0,0,1-4.18-4.49,4.25,4.25,0,0,1,4.32-4.62C331.83,306.09,333.52,307.91,333.52,310.57Zm-6.92.09c0,1.91,1.1,3.35,2.65,3.35s2.65-1.42,2.65-3.39c0-1.47-.74-3.34-2.61-3.34S326.6,309,326.6,310.66Z" transform="translate(-130 -51)"/><path d="M336,306.29l1.71,4.89a21.82,21.82,0,0,1,.7,2.24h.06c.2-.72.45-1.45.74-2.24l1.69-4.89h1.65L339.13,315h-1.51l-3.31-8.71Z" transform="translate(-130 -51)"/><path d="M345.81,303.84a1,1,0,0,1-2,0,1,1,0,0,1,1-1A.94.94,0,0,1,345.81,303.84ZM344.05,315v-8.71h1.58V315Z" transform="translate(-130 -51)"/><path d="M355.78,302.22v10.53c0,.77,0,1.66.08,2.25h-1.43l-.07-1.51h0a3.24,3.24,0,0,1-3,1.71c-2.1,0-3.72-1.78-3.72-4.43,0-2.9,1.78-4.68,3.91-4.68a2.9,2.9,0,0,1,2.62,1.33h0v-5.2Zm-1.58,7.61a2.9,2.9,0,0,0-.07-.66,2.34,2.34,0,0,0-2.29-1.84c-1.64,0-2.61,1.44-2.61,3.37,0,1.76.86,3.22,2.58,3.22a2.38,2.38,0,0,0,2.32-1.89,3,3,0,0,0,.07-.69Z" transform="translate(-130 -51)"/><path d="M359.29,310.93a2.8,2.8,0,0,0,3,3,5.71,5.71,0,0,0,2.41-.45l.27,1.13a7,7,0,0,1-2.89.54,4,4,0,0,1-4.29-4.39c0-2.63,1.55-4.7,4.09-4.7,2.84,0,3.6,2.5,3.6,4.1a5.31,5.31,0,0,1-.06.74Zm4.65-1.13a2.26,2.26,0,0,0-2.2-2.58,2.63,2.63,0,0,0-2.43,2.58Z" transform="translate(-130 -51)"/><path d="M366.83,308.93v-1.08h9.29v1.08Zm0,3.53v-1.08h9.29v1.08Z" transform="translate(-130 -51)"/><path d="M377.35,309.36c1.27,0,1.45-.7,1.45-1.33a11,11,0,0,0-.14-1.51,10.72,10.72,0,0,1-.14-1.5c0-1.65,1.08-2.35,2.61-2.35h.37v1h-.32c-1.06,0-1.42.57-1.42,1.55a8,8,0,0,0,.12,1.27,7.67,7.67,0,0,1,.13,1.37,1.73,1.73,0,0,1-1.3,1.95v0a1.73,1.73,0,0,1,1.3,2,7.41,7.41,0,0,1-.13,1.37,8.38,8.38,0,0,0-.12,1.3c0,1,.41,1.57,1.42,1.57h.32v1h-.37c-1.5,0-2.61-.65-2.61-2.47a10.58,10.58,0,0,1,.14-1.48,10.17,10.17,0,0,0,.14-1.45c0-.56-.18-1.34-1.45-1.34Z" transform="translate(-130 -51)"/><path class="cls-3" d="M390.79,302.22v10.53c0,.77,0,1.66.08,2.25h-1.43l-.07-1.51h0a3.21,3.21,0,0,1-3,1.71c-2.1,0-3.72-1.78-3.72-4.43,0-2.9,1.78-4.68,3.9-4.68a2.9,2.9,0,0,1,2.63,1.33h0v-5.2Zm-1.58,7.61a2.9,2.9,0,0,0-.07-.66,2.34,2.34,0,0,0-2.29-1.84c-1.64,0-2.61,1.44-2.61,3.37,0,1.76.86,3.22,2.57,3.22a2.38,2.38,0,0,0,2.33-1.89,3,3,0,0,0,.07-.69Z" transform="translate(-130 -51)"/><path class="cls-3" d="M394.3,310.93a2.8,2.8,0,0,0,3,3,5.71,5.71,0,0,0,2.41-.45l.27,1.13a7,7,0,0,1-2.89.54,4,4,0,0,1-4.29-4.39c0-2.63,1.55-4.7,4.09-4.7,2.84,0,3.6,2.5,3.6,4.1a5.31,5.31,0,0,1-.06.74ZM399,309.8a2.26,2.26,0,0,0-2.2-2.58,2.63,2.63,0,0,0-2.43,2.58Z" transform="translate(-130 -51)"/><path class="cls-3" d="M402.6,315v-7.51h-1.22v-1.2h1.22v-.42a4.1,4.1,0,0,1,1-3,3,3,0,0,1,2.12-.81,3.56,3.56,0,0,1,1.35.25l-.21,1.22a2.55,2.55,0,0,0-1-.19c-1.35,0-1.69,1.18-1.69,2.52v.47h2.1v1.2h-2.1V315Z" transform="translate(-130 -51)"/><path class="cls-3" d="M412.52,315l-.13-1.1h-.05a3.24,3.24,0,0,1-2.67,1.3,2.48,2.48,0,0,1-2.66-2.5c0-2.11,1.87-3.26,5.24-3.25v-.18a1.79,1.79,0,0,0-2-2,4.31,4.31,0,0,0-2.27.65l-.36-1.05a5.38,5.38,0,0,1,2.86-.77c2.67,0,3.32,1.82,3.32,3.56v3.26A12.06,12.06,0,0,0,414,315Zm-.23-4.45c-1.73,0-3.7.27-3.7,2a1.41,1.41,0,0,0,1.5,1.51,2.16,2.16,0,0,0,2.1-1.46,1.48,1.48,0,0,0,.1-.5Z" transform="translate(-130 -51)"/><path class="cls-3" d="M423.66,312.62c0,.9,0,1.7.07,2.38h-1.4l-.09-1.42h0a3.27,3.27,0,0,1-2.88,1.62c-1.37,0-3-.76-3-3.82v-5.09h1.58v4.82c0,1.66.5,2.77,1.94,2.77a2.25,2.25,0,0,0,2.24-2.25v-5.34h1.58Z" transform="translate(-130 -51)"/><path class="cls-3" d="M426.29,302.22h1.58V315h-1.58Z" transform="translate(-130 -51)"/><path class="cls-3" d="M432.44,303.78v2.51h2.27v1.2h-2.27v4.7c0,1.08.31,1.69,1.19,1.69a3.78,3.78,0,0,0,.92-.1l.07,1.18a3.74,3.74,0,0,1-1.4.22,2.17,2.17,0,0,1-1.71-.67,3.2,3.2,0,0,1-.61-2.26v-4.76h-1.36v-1.2h1.36V304.2Z" transform="translate(-130 -51)"/><path class="cls-3" d="M436.55,302.86h6.53v1.32h-5v4h4.6v1.3h-4.6V315h-1.56Z" transform="translate(-130 -51)"/><path class="cls-3" d="M452.59,310.57a4.27,4.27,0,0,1-4.34,4.63,4.15,4.15,0,0,1-4.18-4.49,4.25,4.25,0,0,1,4.32-4.62A4.13,4.13,0,0,1,452.59,310.57Zm-6.92.09c0,1.91,1.1,3.35,2.65,3.35s2.65-1.42,2.65-3.39c0-1.47-.74-3.34-2.61-3.34S445.67,309,445.67,310.66Z" transform="translate(-130 -51)"/><path class="cls-3" d="M462.47,310.57a4.26,4.26,0,0,1-4.34,4.63,4.15,4.15,0,0,1-4.18-4.49,4.25,4.25,0,0,1,4.32-4.62C460.78,306.09,462.47,307.91,462.47,310.57Zm-6.91.09c0,1.91,1.09,3.35,2.64,3.35s2.65-1.42,2.65-3.39c0-1.47-.74-3.34-2.61-3.34S455.56,309,455.56,310.66Z" transform="translate(-130 -51)"/><path class="cls-3" d="M464.3,313.09a5.57,5.57,0,0,0,2.81.79c1.6,0,2.54-.84,2.54-2.07s-.65-1.78-2.29-2.41c-2-.7-3.2-1.73-3.2-3.44,0-1.89,1.57-3.29,3.92-3.29a5.49,5.49,0,0,1,2.69.59l-.44,1.28A4.73,4.73,0,0,0,468,304c-1.66,0-2.29,1-2.29,1.82,0,1.14.74,1.69,2.42,2.34,2,.79,3.09,1.78,3.09,3.57s-1.38,3.49-4.25,3.49a6.24,6.24,0,0,1-3.09-.77Z" transform="translate(-130 -51)"/><path class="cls-3" d="M474.33,310.93a2.8,2.8,0,0,0,3,3,5.75,5.75,0,0,0,2.41-.45l.27,1.13a7.09,7.09,0,0,1-2.9.54,4,4,0,0,1-4.28-4.39c0-2.63,1.55-4.7,4.08-4.7,2.85,0,3.6,2.5,3.6,4.1a5.67,5.67,0,0,1-.05.74ZM479,309.8a2.25,2.25,0,0,0-2.19-2.58,2.63,2.63,0,0,0-2.43,2.58Z" transform="translate(-130 -51)"/><path class="cls-3" d="M482.46,309c0-1,0-1.9-.07-2.71h1.39l.05,1.71h.08a2.61,2.61,0,0,1,2.41-1.91,2.06,2.06,0,0,1,.45.05v1.5a2.17,2.17,0,0,0-.54-.06,2.23,2.23,0,0,0-2.13,2,5,5,0,0,0-.07.73V315h-1.57Z" transform="translate(-130 -51)"/><path class="cls-3" d="M489.41,306.29l1.71,4.89a22,22,0,0,1,.71,2.24h.05c.2-.72.45-1.45.74-2.24l1.69-4.89H496L492.55,315H491l-3.31-8.71Z" transform="translate(-130 -51)"/><path class="cls-3" d="M499.22,303.84a.93.93,0,0,1-1,1,.94.94,0,0,1-.95-1,1,1,0,0,1,1-1A.93.93,0,0,1,499.22,303.84ZM497.46,315v-8.71H499V315Z" transform="translate(-130 -51)"/><path class="cls-3" d="M507.88,314.68a5.91,5.91,0,0,1-2.5.5,4.14,4.14,0,0,1-4.34-4.45,4.43,4.43,0,0,1,4.68-4.62,5.23,5.23,0,0,1,2.2.45l-.36,1.22a3.67,3.67,0,0,0-1.84-.41,3.28,3.28,0,0,0-.05,6.55,4.45,4.45,0,0,0,1.94-.43Z" transform="translate(-130 -51)"/><path class="cls-3" d="M510.51,310.93a2.79,2.79,0,0,0,3,3,5.75,5.75,0,0,0,2.41-.45l.27,1.13a7.09,7.09,0,0,1-2.9.54,4,4,0,0,1-4.28-4.39c0-2.63,1.54-4.7,4.08-4.7,2.85,0,3.6,2.5,3.6,4.1a5.67,5.67,0,0,1,0,.74Zm4.64-1.13a2.25,2.25,0,0,0-2.19-2.58,2.62,2.62,0,0,0-2.43,2.58Z" transform="translate(-130 -51)"/><path d="M521.94,310.28c-1.28,0-1.46.78-1.46,1.34a10.17,10.17,0,0,0,.14,1.45,9.28,9.28,0,0,1,.15,1.48c0,1.82-1.14,2.47-2.61,2.47h-.38v-1h.31c1,0,1.44-.56,1.44-1.57a9.87,9.87,0,0,0-.13-1.3,8.35,8.35,0,0,1-.14-1.37,1.76,1.76,0,0,1,1.29-2v0a1.76,1.76,0,0,1-1.29-1.95,8.71,8.71,0,0,1,.14-1.37,9.43,9.43,0,0,0,.13-1.27c0-1-.38-1.54-1.43-1.55h-.32v-1h.36c1.53,0,2.63.7,2.63,2.35a9.41,9.41,0,0,1-.15,1.5,11,11,0,0,0-.14,1.51c0,.63.18,1.33,1.46,1.33Z" transform="translate(-130 -51)"/><path d="M532,310.71,523.63,315v-1.24l7.09-3.53v0l-7.09-3.53v-1.24l8.35,4.29Z" transform="translate(-130 -51)"/><path d="M616.19,309.72l8.35-4.3v1.24l-7,3.53v0l7,3.53V315l-8.35-4.3Z" transform="translate(-130 -51)"/><path d="M627.1,302.86h6.53v1.32h-5v4h4.59v1.3h-4.59V315H627.1Z" transform="translate(-130 -51)"/><path d="M643.14,310.57a4.27,4.27,0,0,1-4.34,4.63,4.15,4.15,0,0,1-4.18-4.49,4.25,4.25,0,0,1,4.32-4.62A4.13,4.13,0,0,1,643.14,310.57Zm-6.92.09c0,1.91,1.1,3.35,2.65,3.35s2.65-1.42,2.65-3.39c0-1.47-.74-3.34-2.61-3.34S636.22,309,636.22,310.66Z" transform="translate(-130 -51)"/><path d="M653,310.57a4.26,4.26,0,0,1-4.34,4.63,4.15,4.15,0,0,1-4.18-4.49,4.25,4.25,0,0,1,4.32-4.62C651.33,306.09,653,307.91,653,310.57Zm-6.92.09c0,1.91,1.1,3.35,2.65,3.35s2.65-1.42,2.65-3.39c0-1.47-.74-3.34-2.61-3.34S646.1,309,646.1,310.66Z" transform="translate(-130 -51)"/><path d="M654.85,313.09a5.57,5.57,0,0,0,2.81.79c1.6,0,2.54-.84,2.54-2.07s-.65-1.78-2.29-2.41c-2-.7-3.2-1.73-3.2-3.44,0-1.89,1.56-3.29,3.92-3.29a5.49,5.49,0,0,1,2.69.59l-.44,1.28a4.73,4.73,0,0,0-2.3-.58c-1.66,0-2.29,1-2.29,1.82,0,1.14.74,1.69,2.42,2.34,2,.79,3.09,1.78,3.09,3.57s-1.38,3.49-4.25,3.49a6.24,6.24,0,0,1-3.09-.77Z" transform="translate(-130 -51)"/><path d="M664.88,310.93a2.79,2.79,0,0,0,3,3,5.75,5.75,0,0,0,2.41-.45l.27,1.13a7.09,7.09,0,0,1-2.9.54,4,4,0,0,1-4.28-4.39c0-2.63,1.54-4.7,4.08-4.7,2.85,0,3.6,2.5,3.6,4.1a5.67,5.67,0,0,1,0,.74Zm4.64-1.13a2.25,2.25,0,0,0-2.19-2.58,2.62,2.62,0,0,0-2.43,2.58Z" transform="translate(-130 -51)"/><path d="M673,309c0-1,0-1.9-.07-2.71h1.39l0,1.71h.08a2.6,2.6,0,0,1,2.41-1.91,2.06,2.06,0,0,1,.45.05v1.5a2.17,2.17,0,0,0-.54-.06,2.23,2.23,0,0,0-2.13,2,5,5,0,0,0-.07.73V315H673Z" transform="translate(-130 -51)"/><path d="M680,306.29l1.71,4.89a22,22,0,0,1,.71,2.24h0c.2-.72.45-1.45.74-2.24l1.69-4.89h1.66L683.1,315h-1.52l-3.31-8.71Z" transform="translate(-130 -51)"/><path d="M689.77,303.84a1,1,0,0,1-2,0,1,1,0,0,1,1-1A.94.94,0,0,1,689.77,303.84ZM688,315v-8.71h1.58V315Z" transform="translate(-130 -51)"/><path d="M698.43,314.68a5.91,5.91,0,0,1-2.5.5,4.14,4.14,0,0,1-4.34-4.45,4.43,4.43,0,0,1,4.68-4.62,5.23,5.23,0,0,1,2.2.45l-.36,1.22a3.67,3.67,0,0,0-1.84-.41,3.28,3.28,0,0,0,0,6.55,4.45,4.45,0,0,0,1.94-.43Z" transform="translate(-130 -51)"/><path d="M701.06,310.93a2.79,2.79,0,0,0,3,3,5.75,5.75,0,0,0,2.41-.45l.27,1.13a7.09,7.09,0,0,1-2.9.54,4,4,0,0,1-4.29-4.39c0-2.63,1.55-4.7,4.09-4.7,2.85,0,3.6,2.5,3.6,4.1a5.67,5.67,0,0,1-.05.74Zm4.64-1.13a2.25,2.25,0,0,0-2.19-2.58,2.62,2.62,0,0,0-2.43,2.58Z" transform="translate(-130 -51)"/><path d="M709.25,303a17.49,17.49,0,0,1,3-.24,5,5,0,0,1,3.41,1,3.29,3.29,0,0,1,1.06,2.54,3.53,3.53,0,0,1-.94,2.59,5,5,0,0,1-3.71,1.34,5.42,5.42,0,0,1-1.26-.11V315h-1.56Zm1.56,5.85a5.32,5.32,0,0,0,1.3.13c1.89,0,3-.92,3-2.6S714,304,712.29,304a6.87,6.87,0,0,0-1.48.12Z" transform="translate(-130 -51)"/><path d="M718.48,309c0-1,0-1.9-.07-2.71h1.39l.05,1.71h.07a2.62,2.62,0,0,1,2.41-1.91,2.16,2.16,0,0,1,.46.05v1.5a2.26,2.26,0,0,0-.55-.06,2.23,2.23,0,0,0-2.12,2,3.93,3.93,0,0,0-.07.73V315h-1.57Z" transform="translate(-130 -51)"/><path d="M732.07,310.57a4.26,4.26,0,0,1-4.34,4.63,4.15,4.15,0,0,1-4.17-4.49,4.25,4.25,0,0,1,4.32-4.62C730.38,306.09,732.07,307.91,732.07,310.57Zm-6.91.09c0,1.91,1.1,3.35,2.65,3.35s2.64-1.42,2.64-3.39c0-1.47-.74-3.34-2.61-3.34S725.16,309,725.16,310.66Z" transform="translate(-130 -51)"/><path d="M734.56,306.29l1.71,4.89c.28.79.52,1.52.7,2.24h0c.2-.72.45-1.45.74-2.24l1.69-4.89h1.66L737.69,315h-1.51l-3.32-8.71Z" transform="translate(-130 -51)"/><path d="M744.37,303.84a1,1,0,0,1-2,0,1,1,0,0,1,1-1A.94.94,0,0,1,744.37,303.84ZM742.6,315v-8.71h1.59V315Z" transform="translate(-130 -51)"/><path d="M754.34,302.22v10.53c0,.77,0,1.66.07,2.25H753l-.07-1.51h0a3.23,3.23,0,0,1-3,1.71c-2.11,0-3.73-1.78-3.73-4.43,0-2.9,1.79-4.68,3.91-4.68a2.93,2.93,0,0,1,2.63,1.33h0v-5.2Zm-1.58,7.61a2.44,2.44,0,0,0-.08-.66,2.33,2.33,0,0,0-2.28-1.84c-1.64,0-2.61,1.44-2.61,3.37,0,1.76.86,3.22,2.57,3.22a2.38,2.38,0,0,0,2.32-1.89,2.51,2.51,0,0,0,.08-.69Z" transform="translate(-130 -51)"/><path d="M757.85,310.93a2.79,2.79,0,0,0,3,3,5.78,5.78,0,0,0,2.41-.45l.27,1.13a7.09,7.09,0,0,1-2.9.54,4,4,0,0,1-4.29-4.39c0-2.63,1.55-4.7,4.09-4.7,2.85,0,3.6,2.5,3.6,4.1a5.67,5.67,0,0,1,0,.74Zm4.64-1.13a2.25,2.25,0,0,0-2.19-2.58,2.62,2.62,0,0,0-2.43,2.58Z" transform="translate(-130 -51)"/><path d="M766,309c0-1,0-1.9-.07-2.71h1.39l.05,1.71h.07a2.62,2.62,0,0,1,2.42-1.91,2.06,2.06,0,0,1,.45.05v1.5a2.17,2.17,0,0,0-2.67,2,5,5,0,0,0-.07.73V315H766Z" transform="translate(-130 -51)"/><path d="M775.69,309.13c0-1.12,0-2-.08-2.84H777l.07,1.49h0a3.44,3.44,0,0,1,3.1-1.69c2.11,0,3.69,1.78,3.69,4.43,0,3.13-1.91,4.68-4,4.68a3.06,3.06,0,0,1-2.68-1.37h0v4.74h-1.56Zm1.56,2.32a4.18,4.18,0,0,0,.07.65A2.46,2.46,0,0,0,779.7,314c1.68,0,2.65-1.37,2.65-3.37,0-1.75-.92-3.24-2.6-3.24a2.52,2.52,0,0,0-2.39,2,2.76,2.76,0,0,0-.11.65Z" transform="translate(-130 -51)"/><path d="M785.93,309c0-1,0-1.9-.08-2.71h1.39l0,1.71h.08a2.61,2.61,0,0,1,2.41-1.91,2,2,0,0,1,.45.05v1.5a2.12,2.12,0,0,0-.54-.06,2.21,2.21,0,0,0-2.12,2,3.88,3.88,0,0,0-.08.73V315h-1.56Z" transform="translate(-130 -51)"/><path d="M799.52,310.57a4.26,4.26,0,0,1-4.34,4.63,4.15,4.15,0,0,1-4.18-4.49,4.25,4.25,0,0,1,4.32-4.62C797.83,306.09,799.52,307.91,799.52,310.57Zm-6.91.09c0,1.91,1.09,3.35,2.64,3.35s2.65-1.42,2.65-3.39c0-1.47-.74-3.34-2.61-3.34S792.61,309,792.61,310.66Z" transform="translate(-130 -51)"/><path d="M802,306.29l1.71,4.89a21.82,21.82,0,0,1,.7,2.24h.06c.2-.72.45-1.45.74-2.24l1.69-4.89h1.65L805.13,315h-1.51l-3.31-8.71Z" transform="translate(-130 -51)"/><path d="M811.81,303.84a1,1,0,0,1-2,0,1,1,0,0,1,1-1A.94.94,0,0,1,811.81,303.84ZM810.05,315v-8.71h1.58V315Z" transform="translate(-130 -51)"/><path d="M821.79,302.22v10.53c0,.77,0,1.66.07,2.25h-1.43l-.07-1.51h0a3.23,3.23,0,0,1-3,1.71c-2.11,0-3.73-1.78-3.73-4.43,0-2.9,1.78-4.68,3.91-4.68a2.9,2.9,0,0,1,2.62,1.33h0v-5.2Zm-1.59,7.61a2.9,2.9,0,0,0-.07-.66,2.34,2.34,0,0,0-2.29-1.84c-1.64,0-2.61,1.44-2.61,3.37,0,1.76.86,3.22,2.57,3.22a2.38,2.38,0,0,0,2.33-1.89,3,3,0,0,0,.07-.69Z" transform="translate(-130 -51)"/><path d="M825.29,310.93a2.8,2.8,0,0,0,3,3,5.71,5.71,0,0,0,2.41-.45l.27,1.13a7,7,0,0,1-2.89.54,4,4,0,0,1-4.29-4.39c0-2.63,1.55-4.7,4.09-4.7,2.84,0,3.6,2.5,3.6,4.1a5.31,5.31,0,0,1-.06.74Zm4.65-1.13a2.26,2.26,0,0,0-2.2-2.58,2.63,2.63,0,0,0-2.43,2.58Z" transform="translate(-130 -51)"/><path d="M832.83,308.93v-1.08h9.29v1.08Zm0,3.53v-1.08h9.29v1.08Z" transform="translate(-130 -51)"/><path d="M843.35,309.36c1.27,0,1.45-.7,1.45-1.33a11,11,0,0,0-.14-1.51,10.72,10.72,0,0,1-.14-1.5c0-1.65,1.08-2.35,2.61-2.35h.37v1h-.32c-1.06,0-1.42.57-1.42,1.55a8,8,0,0,0,.12,1.27,7.67,7.67,0,0,1,.13,1.37,1.73,1.73,0,0,1-1.3,1.95v0a1.73,1.73,0,0,1,1.3,2,7.41,7.41,0,0,1-.13,1.37,8.38,8.38,0,0,0-.12,1.3c0,1,.41,1.57,1.42,1.57h.32v1h-.37c-1.5,0-2.61-.65-2.61-2.47a10.58,10.58,0,0,1,.14-1.48,10.17,10.17,0,0,0,.14-1.45c0-.56-.18-1.34-1.45-1.34Z" transform="translate(-130 -51)"/><path class="cls-8" d="M849.27,308.64c0-.9,0-1.63-.07-2.35h1.38l.07,1.4h.06a3,3,0,0,1,2.73-1.6,2.58,2.58,0,0,1,2.47,1.74h0a3.63,3.63,0,0,1,1-1.13,3,3,0,0,1,1.93-.61c1.15,0,2.86.75,2.86,3.78V315h-1.55v-4.93c0-1.68-.61-2.69-1.89-2.69a2.05,2.05,0,0,0-1.87,1.44,2.73,2.73,0,0,0-.13.8V315h-1.55v-5.22c0-1.39-.61-2.4-1.82-2.4a2.17,2.17,0,0,0-2,1.59,2.15,2.15,0,0,0-.12.77V315h-1.55Z" transform="translate(-130 -51)"/><path class="cls-8" d="M872.17,310.57a4.27,4.27,0,0,1-4.34,4.63,4.15,4.15,0,0,1-4.18-4.49,4.25,4.25,0,0,1,4.32-4.62A4.13,4.13,0,0,1,872.17,310.57Zm-6.92.09c0,1.91,1.1,3.35,2.65,3.35s2.65-1.42,2.65-3.39c0-1.47-.74-3.34-2.61-3.34S865.25,309,865.25,310.66Z" transform="translate(-130 -51)"/><path class="cls-8" d="M880.37,314.68a5.91,5.91,0,0,1-2.5.5,4.14,4.14,0,0,1-4.34-4.45,4.43,4.43,0,0,1,4.68-4.62,5.23,5.23,0,0,1,2.2.45l-.36,1.22a3.64,3.64,0,0,0-1.84-.41,3.28,3.28,0,0,0-.05,6.55,4.45,4.45,0,0,0,1.94-.43Z" transform="translate(-130 -51)"/><path class="cls-8" d="M883.79,310.28h0c.21-.3.52-.68.77-1l2.56-3h1.91l-3.37,3.58,3.84,5.13h-1.93l-3-4.18-.81.9V315h-1.56V302.22h1.56Z" transform="translate(-130 -51)"/><path class="cls-8" d="M890.72,302.86h6.54v1.32h-5v4h4.59v1.3h-4.59V315h-1.57Z" transform="translate(-130 -51)"/><path class="cls-8" d="M906.76,310.57a4.26,4.26,0,0,1-4.34,4.63,4.14,4.14,0,0,1-4.17-4.49c0-2.91,1.9-4.62,4.32-4.62S906.76,307.91,906.76,310.57Zm-6.91.09c0,1.91,1.1,3.35,2.65,3.35s2.64-1.42,2.64-3.39c0-1.47-.74-3.34-2.61-3.34S899.85,309,899.85,310.66Z" transform="translate(-130 -51)"/><path class="cls-8" d="M916.64,310.57a4.26,4.26,0,0,1-4.34,4.63,4.15,4.15,0,0,1-4.17-4.49,4.25,4.25,0,0,1,4.32-4.62C915,306.09,916.64,307.91,916.64,310.57Zm-6.91.09c0,1.91,1.1,3.35,2.65,3.35s2.64-1.42,2.64-3.39c0-1.47-.73-3.34-2.61-3.34S909.73,309,909.73,310.66Z" transform="translate(-130 -51)"/><path class="cls-8" d="M918.48,313.09a5.57,5.57,0,0,0,2.81.79c1.6,0,2.54-.84,2.54-2.07s-.65-1.78-2.29-2.41c-2-.7-3.21-1.73-3.21-3.44,0-1.89,1.57-3.29,3.93-3.29a5.47,5.47,0,0,1,2.68.59l-.43,1.28a4.8,4.8,0,0,0-2.3-.58c-1.66,0-2.29,1-2.29,1.82,0,1.14.74,1.69,2.41,2.34,2,.79,3.1,1.78,3.1,3.57s-1.39,3.49-4.25,3.49a6.32,6.32,0,0,1-3.1-.77Z" transform="translate(-130 -51)"/><path class="cls-8" d="M928.5,310.93a2.8,2.8,0,0,0,3,3,5.8,5.8,0,0,0,2.42-.45l.27,1.13a7.13,7.13,0,0,1-2.9.54,4,4,0,0,1-4.29-4.39c0-2.63,1.55-4.7,4.09-4.7,2.84,0,3.6,2.5,3.6,4.1,0,.33,0,.58,0,.74Zm4.65-1.13a2.26,2.26,0,0,0-2.2-2.58,2.63,2.63,0,0,0-2.43,2.58Z" transform="translate(-130 -51)"/><path class="cls-8" d="M936.64,309c0-1,0-1.9-.07-2.71H938L938,308h.07a2.62,2.62,0,0,1,2.41-1.91,2,2,0,0,1,.45.05v1.5a2.12,2.12,0,0,0-.54-.06,2.22,2.22,0,0,0-2.12,2,3.93,3.93,0,0,0-.07.73V315h-1.57Z" transform="translate(-130 -51)"/><path class="cls-8" d="M943.59,306.29l1.71,4.89a21.82,21.82,0,0,1,.7,2.24h0c.2-.72.45-1.45.74-2.24l1.7-4.89h1.65L946.72,315h-1.51l-3.31-8.71Z" transform="translate(-130 -51)"/><path class="cls-8" d="M953.4,303.84a1,1,0,0,1-2,0,1,1,0,0,1,1-1A.94.94,0,0,1,953.4,303.84ZM951.63,315v-8.71h1.59V315Z" transform="translate(-130 -51)"/><path class="cls-8" d="M962.06,314.68a6,6,0,0,1-2.51.5,4.14,4.14,0,0,1-4.34-4.45,4.43,4.43,0,0,1,4.69-4.62,5.21,5.21,0,0,1,2.19.45l-.36,1.22a3.63,3.63,0,0,0-1.83-.41,3.28,3.28,0,0,0-.06,6.55,4.5,4.5,0,0,0,1.95-.43Z" transform="translate(-130 -51)"/><path class="cls-8" d="M964.68,310.93a2.8,2.8,0,0,0,3,3,5.71,5.71,0,0,0,2.41-.45l.27,1.13a7,7,0,0,1-2.89.54,4,4,0,0,1-4.29-4.39c0-2.63,1.55-4.7,4.09-4.7,2.84,0,3.6,2.5,3.6,4.1a5.31,5.31,0,0,1-.06.74Zm4.65-1.13a2.26,2.26,0,0,0-2.2-2.58,2.63,2.63,0,0,0-2.43,2.58Z" transform="translate(-130 -51)"/><path d="M976.11,310.28c-1.27,0-1.45.78-1.45,1.34a10.17,10.17,0,0,0,.14,1.45,10.58,10.58,0,0,1,.14,1.48c0,1.82-1.13,2.47-2.61,2.47H972v-1h.3c1,0,1.44-.56,1.44-1.57a11.86,11.86,0,0,0-.12-1.3,7.37,7.37,0,0,1-.15-1.37,1.76,1.76,0,0,1,1.3-2v0a1.77,1.77,0,0,1-1.3-1.95,7.66,7.66,0,0,1,.15-1.37,11.33,11.33,0,0,0,.12-1.27c0-1-.38-1.54-1.42-1.55H972v-1h.36c1.53,0,2.62.7,2.62,2.35a10.72,10.72,0,0,1-.14,1.5,11,11,0,0,0-.14,1.51c0,.63.18,1.33,1.45,1.33Z" transform="translate(-130 -51)"/><path d="M986.16,310.71,977.8,315v-1.24l7.1-3.53v0l-7.1-3.53v-1.24l8.36,4.29Z" transform="translate(-130 -51)"/><path d="M374.29,434a5.91,5.91,0,0,1-2.5.5,4.14,4.14,0,0,1-4.34-4.44,4.43,4.43,0,0,1,4.68-4.63,5.23,5.23,0,0,1,2.2.45l-.36,1.22a3.75,3.75,0,0,0-1.84-.41,3.28,3.28,0,0,0-.05,6.55,4.45,4.45,0,0,0,1.94-.43Z" transform="translate(-130 -51)"/><path d="M383.92,429.85a4.26,4.26,0,0,1-4.34,4.63,4.14,4.14,0,0,1-4.17-4.48c0-2.92,1.9-4.63,4.32-4.63S383.92,427.19,383.92,429.85Zm-6.91.09c0,1.91,1.1,3.35,2.65,3.35s2.64-1.42,2.64-3.38c0-1.48-.74-3.35-2.61-3.35S377,428.29,377,429.94Z" transform="translate(-130 -51)"/><path d="M385.92,427.93c0-.9,0-1.64-.07-2.36h1.4l.09,1.44h0a3.2,3.2,0,0,1,2.88-1.64c1.2,0,3.08.72,3.08,3.71v5.2h-1.59v-5c0-1.4-.52-2.58-2-2.58A2.34,2.34,0,0,0,387.5,429v5.24h-1.58Z" transform="translate(-130 -51)"/><path d="M395.69,432.66a4.13,4.13,0,0,0,2.09.63c1.15,0,1.69-.57,1.69-1.29s-.45-1.17-1.62-1.61c-1.56-.55-2.3-1.42-2.3-2.46,0-1.41,1.13-2.56,3-2.56a4.34,4.34,0,0,1,2.14.54l-.4,1.15a3.44,3.44,0,0,0-1.78-.5c-.94,0-1.46.54-1.46,1.19s.52,1,1.66,1.47c1.51.58,2.28,1.34,2.28,2.63,0,1.53-1.18,2.61-3.26,2.61a4.94,4.94,0,0,1-2.44-.59Z" transform="translate(-130 -51)"/><path d="M404.94,423.07v2.5h2.27v1.2h-2.27v4.7c0,1.08.31,1.7,1.19,1.7a3.68,3.68,0,0,0,.92-.11l.07,1.19a4,4,0,0,1-1.4.21,2.2,2.2,0,0,1-1.71-.66,3.25,3.25,0,0,1-.61-2.27v-4.76h-1.35v-1.2h1.35v-2.09Z" transform="translate(-130 -51)"/><path class="cls-3" d="M413,434.28v-7.51h-1.22v-1.2H413v-.42a4.1,4.1,0,0,1,1-3,3.06,3.06,0,0,1,2.12-.81,3.88,3.88,0,0,1,1.36.25l-.22,1.23a2.33,2.33,0,0,0-1-.2c-1.35,0-1.69,1.19-1.69,2.52v.47h2.11v1.2h-2.11v7.51Z" transform="translate(-130 -51)"/><path class="cls-3" d="M425.72,429.85a4.26,4.26,0,0,1-4.34,4.63A4.14,4.14,0,0,1,417.2,430c0-2.92,1.91-4.63,4.32-4.63S425.72,427.19,425.72,429.85Zm-6.92.09c0,1.91,1.1,3.35,2.65,3.35s2.65-1.42,2.65-3.38c0-1.48-.74-3.35-2.61-3.35S418.8,428.29,418.8,429.94Z" transform="translate(-130 -51)"/><path class="cls-3" d="M435.6,429.85a4.26,4.26,0,0,1-4.34,4.63,4.14,4.14,0,0,1-4.18-4.48c0-2.92,1.91-4.63,4.32-4.63S435.6,427.19,435.6,429.85Zm-6.91.09c0,1.91,1.09,3.35,2.64,3.35s2.65-1.42,2.65-3.38c0-1.48-.74-3.35-2.61-3.35S428.69,428.29,428.69,429.94Z" transform="translate(-130 -51)"/><path class="cls-3" d="M437.43,432.38a5.6,5.6,0,0,0,2.81.79c1.61,0,2.54-.85,2.54-2.07s-.65-1.79-2.28-2.42c-2-.7-3.21-1.72-3.21-3.44,0-1.89,1.57-3.29,3.93-3.29a5.59,5.59,0,0,1,2.68.59l-.43,1.28a5,5,0,0,0-2.31-.57c-1.66,0-2.29,1-2.29,1.81,0,1.14.74,1.7,2.42,2.35,2,.79,3.09,1.78,3.09,3.56s-1.38,3.49-4.25,3.49a6.27,6.27,0,0,1-3.09-.77Z" transform="translate(-130 -51)"/><path class="cls-3" d="M447.46,430.21a2.79,2.79,0,0,0,3,3,5.75,5.75,0,0,0,2.41-.45l.27,1.13a7.09,7.09,0,0,1-2.9.54,4,4,0,0,1-4.28-4.39c0-2.63,1.55-4.7,4.08-4.7,2.85,0,3.61,2.5,3.61,4.11a5.28,5.28,0,0,1-.06.73Zm4.64-1.13a2.25,2.25,0,0,0-2.19-2.58,2.63,2.63,0,0,0-2.43,2.58Z" transform="translate(-130 -51)"/><path class="cls-3" d="M455.6,428.29c0-1,0-1.91-.08-2.72h1.39l0,1.71H457a2.61,2.61,0,0,1,2.41-1.91,2.06,2.06,0,0,1,.45.05v1.5a2.21,2.21,0,0,0-2.67,2,5.32,5.32,0,0,0-.07.74v4.64H455.6Z" transform="translate(-130 -51)"/><path class="cls-3" d="M462.54,425.57l1.71,4.9a21.84,21.84,0,0,1,.71,2.23H465c.2-.72.45-1.44.74-2.23l1.69-4.9h1.66l-3.42,8.71h-1.52l-3.31-8.71Z" transform="translate(-130 -51)"/><path class="cls-3" d="M472.35,423.12a.93.93,0,0,1-1,1,.94.94,0,0,1-1-1,1,1,0,0,1,1-1A.93.93,0,0,1,472.35,423.12Zm-1.76,11.16v-8.71h1.58v8.71Z" transform="translate(-130 -51)"/><path class="cls-3" d="M481,434a5.91,5.91,0,0,1-2.5.5,4.14,4.14,0,0,1-4.34-4.44,4.43,4.43,0,0,1,4.68-4.63,5.23,5.23,0,0,1,2.2.45l-.36,1.22a3.75,3.75,0,0,0-1.84-.41,3.28,3.28,0,0,0-.05,6.55,4.45,4.45,0,0,0,1.94-.43Z" transform="translate(-130 -51)"/><path class="cls-3" d="M483.64,430.21a2.79,2.79,0,0,0,3,3,5.75,5.75,0,0,0,2.41-.45l.27,1.13a7.09,7.09,0,0,1-2.9.54,4,4,0,0,1-4.28-4.39c0-2.63,1.55-4.7,4.08-4.7,2.85,0,3.61,2.5,3.61,4.11a5.28,5.28,0,0,1-.06.73Zm4.64-1.13a2.25,2.25,0,0,0-2.19-2.58,2.63,2.63,0,0,0-2.43,2.58Z" transform="translate(-130 -51)"/><path d="M495,428.21v-1.08h9.29v1.08Zm0,3.53v-1.08h9.29v1.08Z" transform="translate(-130 -51)"/><path d="M517.43,431.91c0,.9,0,1.69.07,2.37h-1.41l-.09-1.42h0a3.29,3.29,0,0,1-2.88,1.62c-1.37,0-3-.76-3-3.82v-5.09h1.59v4.82c0,1.66.5,2.78,1.94,2.78a2.3,2.3,0,0,0,2.09-1.44,2.38,2.38,0,0,0,.14-.81v-5.35h1.59Z" transform="translate(-130 -51)"/><path d="M519.84,432.66a4.07,4.07,0,0,0,2.09.63c1.15,0,1.69-.57,1.69-1.29s-.45-1.17-1.62-1.61c-1.57-.55-2.31-1.42-2.31-2.46,0-1.41,1.14-2.56,3-2.56a4.31,4.31,0,0,1,2.14.54l-.39,1.15a3.51,3.51,0,0,0-1.79-.5c-.93,0-1.45.54-1.45,1.19s.52,1,1.65,1.47c1.51.58,2.29,1.34,2.29,2.63,0,1.53-1.19,2.61-3.26,2.61a5,5,0,0,1-2.45-.59Z" transform="translate(-130 -51)"/><path d="M528.06,430.21a2.8,2.8,0,0,0,3,3,5.71,5.71,0,0,0,2.41-.45l.27,1.13a7,7,0,0,1-2.89.54,4,4,0,0,1-4.29-4.39c0-2.63,1.55-4.7,4.09-4.7,2.84,0,3.6,2.5,3.6,4.11a5.28,5.28,0,0,1-.06.73Zm4.65-1.13a2.26,2.26,0,0,0-2.2-2.58,2.63,2.63,0,0,0-2.43,2.58Z" transform="translate(-130 -51)"/><path d="M536.25,422.15h6.54v1.31h-5v4h4.59v1.29h-4.59v5.49h-1.57Z" transform="translate(-130 -51)"/><path d="M552.29,429.85a4.26,4.26,0,0,1-4.34,4.63,4.14,4.14,0,0,1-4.17-4.48c0-2.92,1.9-4.63,4.32-4.63S552.29,427.19,552.29,429.85Zm-6.91.09c0,1.91,1.1,3.35,2.65,3.35s2.64-1.42,2.64-3.38c0-1.48-.74-3.35-2.61-3.35S545.38,428.29,545.38,429.94Z" transform="translate(-130 -51)"/><path d="M562.17,429.85a4.25,4.25,0,0,1-4.33,4.63,4.14,4.14,0,0,1-4.18-4.48c0-2.92,1.91-4.63,4.32-4.63S562.17,427.19,562.17,429.85Zm-6.91.09c0,1.91,1.1,3.35,2.65,3.35s2.64-1.42,2.64-3.38c0-1.48-.73-3.35-2.61-3.35S555.26,428.29,555.26,429.94Z" transform="translate(-130 -51)"/><path d="M564,432.38a5.57,5.57,0,0,0,2.81.79c1.6,0,2.54-.85,2.54-2.07s-.65-1.79-2.29-2.42c-2-.7-3.21-1.72-3.21-3.44,0-1.89,1.57-3.29,3.93-3.29a5.59,5.59,0,0,1,2.68.59l-.43,1.28a4.94,4.94,0,0,0-2.3-.57c-1.66,0-2.29,1-2.29,1.81,0,1.14.74,1.7,2.41,2.35,2,.79,3.1,1.78,3.1,3.56s-1.39,3.49-4.25,3.49a6.32,6.32,0,0,1-3.1-.77Z" transform="translate(-130 -51)"/><path d="M574,430.21a2.8,2.8,0,0,0,3,3,5.8,5.8,0,0,0,2.42-.45l.27,1.13a7.13,7.13,0,0,1-2.9.54,4,4,0,0,1-4.29-4.39c0-2.63,1.55-4.7,4.09-4.7,2.84,0,3.6,2.5,3.6,4.11,0,.32,0,.57-.05.73Zm4.65-1.13a2.26,2.26,0,0,0-2.2-2.58,2.63,2.63,0,0,0-2.43,2.58Z" transform="translate(-130 -51)"/><path d="M582.17,428.29c0-1,0-1.91-.07-2.72h1.38l.06,1.71h.07a2.62,2.62,0,0,1,2.41-1.91,2,2,0,0,1,.45.05v1.5a2.16,2.16,0,0,0-.54-.05,2.21,2.21,0,0,0-2.12,2,4.14,4.14,0,0,0-.07.74v4.64h-1.57Z" transform="translate(-130 -51)"/><path d="M589.12,425.57l1.71,4.9a21.68,21.68,0,0,1,.7,2.23h.06c.19-.72.45-1.44.73-2.23l1.7-4.9h1.65l-3.42,8.71h-1.51l-3.31-8.71Z" transform="translate(-130 -51)"/><path d="M598.93,423.12a1,1,0,0,1-2,0,1,1,0,0,1,1-1A.94.94,0,0,1,598.93,423.12Zm-1.77,11.16v-8.71h1.59v8.71Z" transform="translate(-130 -51)"/><path d="M607.59,434a6,6,0,0,1-2.51.5,4.13,4.13,0,0,1-4.33-4.44,4.42,4.42,0,0,1,4.68-4.63,5.21,5.21,0,0,1,2.19.45l-.36,1.22a3.74,3.74,0,0,0-1.83-.41,3.28,3.28,0,0,0-.06,6.55,4.5,4.5,0,0,0,2-.43Z" transform="translate(-130 -51)"/><path d="M610.21,430.21a2.8,2.8,0,0,0,3,3,5.8,5.8,0,0,0,2.42-.45l.26,1.13a7,7,0,0,1-2.89.54,4,4,0,0,1-4.29-4.39c0-2.63,1.55-4.7,4.09-4.7,2.84,0,3.6,2.5,3.6,4.11,0,.32,0,.57,0,.73Zm4.65-1.13a2.26,2.26,0,0,0-2.2-2.58,2.63,2.63,0,0,0-2.43,2.58Z" transform="translate(-130 -51)"/><path d="M621.79,421.79a11.81,11.81,0,0,0-2.27,7.36,12.11,12.11,0,0,0,2.27,7.31h-1.25a11.66,11.66,0,0,1-2.35-7.31,11.9,11.9,0,0,1,2.35-7.36Z" transform="translate(-130 -51)"/><path d="M622.51,436.46a12.16,12.16,0,0,0,2.27-7.36,12,12,0,0,0-2.27-7.31h1.22a11.47,11.47,0,0,1,2.36,7.33,11.7,11.7,0,0,1-2.36,7.34Z" transform="translate(-130 -51)"/><path d="M627.56,436.5a25.59,25.59,0,0,0,1.09-4.31l1.74-.18a22.65,22.65,0,0,1-1.73,4.38Zm.78-9.49a1.06,1.06,0,0,1,1.06-1.14,1.13,1.13,0,1,1-1.06,1.14Z" transform="translate(-130 -51)"/><path d="M848.29,434a5.91,5.91,0,0,1-2.5.5,4.14,4.14,0,0,1-4.34-4.44,4.43,4.43,0,0,1,4.68-4.63,5.23,5.23,0,0,1,2.2.45l-.36,1.22a3.75,3.75,0,0,0-1.84-.41,3.28,3.28,0,0,0,0,6.55,4.45,4.45,0,0,0,1.94-.43Z" transform="translate(-130 -51)"/><path d="M857.92,429.85a4.26,4.26,0,0,1-4.34,4.63,4.14,4.14,0,0,1-4.17-4.48c0-2.92,1.9-4.63,4.32-4.63S857.92,427.19,857.92,429.85Zm-6.91.09c0,1.91,1.1,3.35,2.65,3.35s2.64-1.42,2.64-3.38c0-1.48-.74-3.35-2.61-3.35S851,428.29,851,429.94Z" transform="translate(-130 -51)"/><path d="M859.92,427.93c0-.9,0-1.64-.07-2.36h1.4l.09,1.44h0a3.2,3.2,0,0,1,2.88-1.64c1.2,0,3.08.72,3.08,3.71v5.2h-1.59v-5c0-1.4-.52-2.58-2-2.58A2.34,2.34,0,0,0,861.5,429v5.24h-1.58Z" transform="translate(-130 -51)"/><path d="M869.69,432.66a4.13,4.13,0,0,0,2.09.63c1.15,0,1.69-.57,1.69-1.29s-.45-1.17-1.62-1.61c-1.56-.55-2.3-1.42-2.3-2.46,0-1.41,1.13-2.56,3-2.56a4.35,4.35,0,0,1,2.15.54l-.4,1.15a3.44,3.44,0,0,0-1.78-.5c-.94,0-1.46.54-1.46,1.19s.52,1,1.66,1.47c1.51.58,2.28,1.34,2.28,2.63,0,1.53-1.18,2.61-3.26,2.61a4.94,4.94,0,0,1-2.44-.59Z" transform="translate(-130 -51)"/><path d="M879,423.07v2.5h2.26v1.2H879v4.7c0,1.08.3,1.7,1.18,1.7a3.68,3.68,0,0,0,.92-.11l.07,1.19a4,4,0,0,1-1.4.21,2.2,2.2,0,0,1-1.71-.66,3.25,3.25,0,0,1-.61-2.27v-4.76h-1.35v-1.2h1.35v-2.09Z" transform="translate(-130 -51)"/><path class="cls-8" d="M887,434.28v-7.51h-1.22v-1.2H887v-.42a4.1,4.1,0,0,1,1-3,3.06,3.06,0,0,1,2.13-.81,3.86,3.86,0,0,1,1.35.25l-.22,1.23a2.33,2.33,0,0,0-1-.2c-1.35,0-1.69,1.19-1.69,2.52v.47h2.1v1.2h-2.1v7.51Z" transform="translate(-130 -51)"/><path class="cls-8" d="M899.72,429.85a4.26,4.26,0,0,1-4.34,4.63A4.14,4.14,0,0,1,891.2,430c0-2.92,1.91-4.63,4.32-4.63S899.72,427.19,899.72,429.85Zm-6.92.09c0,1.91,1.1,3.35,2.65,3.35s2.65-1.42,2.65-3.38c0-1.48-.74-3.35-2.61-3.35S892.8,428.29,892.8,429.94Z" transform="translate(-130 -51)"/><path class="cls-8" d="M909.6,429.85a4.26,4.26,0,0,1-4.34,4.63,4.14,4.14,0,0,1-4.18-4.48c0-2.92,1.91-4.63,4.32-4.63S909.6,427.19,909.6,429.85Zm-6.91.09c0,1.91,1.1,3.35,2.64,3.35s2.65-1.42,2.65-3.38c0-1.48-.74-3.35-2.61-3.35S902.69,428.29,902.69,429.94Z" transform="translate(-130 -51)"/><path class="cls-8" d="M911.43,432.38a5.6,5.6,0,0,0,2.81.79c1.61,0,2.54-.85,2.54-2.07s-.65-1.79-2.28-2.42c-2-.7-3.21-1.72-3.21-3.44,0-1.89,1.57-3.29,3.92-3.29a5.6,5.6,0,0,1,2.69.59l-.43,1.28a5,5,0,0,0-2.31-.57c-1.66,0-2.28,1-2.28,1.81,0,1.14.73,1.7,2.41,2.35,2.05.79,3.09,1.78,3.09,3.56s-1.38,3.49-4.25,3.49a6.27,6.27,0,0,1-3.09-.77Z" transform="translate(-130 -51)"/><path class="cls-8" d="M921.46,430.21a2.79,2.79,0,0,0,3,3,5.75,5.75,0,0,0,2.41-.45l.27,1.13a7.09,7.09,0,0,1-2.9.54,4,4,0,0,1-4.28-4.39c0-2.63,1.55-4.7,4.09-4.7,2.84,0,3.6,2.5,3.6,4.11a5.28,5.28,0,0,1-.06.73Zm4.65-1.13a2.27,2.27,0,0,0-2.2-2.58,2.63,2.63,0,0,0-2.43,2.58Z" transform="translate(-130 -51)"/><path class="cls-8" d="M929.6,428.29c0-1,0-1.91-.08-2.72h1.39l.05,1.71H931a2.61,2.61,0,0,1,2.41-1.91,2.06,2.06,0,0,1,.45.05v1.5a2.21,2.21,0,0,0-2.67,2,5.32,5.32,0,0,0-.07.74v4.64H929.6Z" transform="translate(-130 -51)"/><path class="cls-8" d="M936.54,425.57l1.71,4.9a21.84,21.84,0,0,1,.71,2.23h0c.2-.72.45-1.44.74-2.23l1.69-4.9h1.66l-3.42,8.71h-1.52l-3.31-8.71Z" transform="translate(-130 -51)"/><path class="cls-8" d="M946.35,423.12a.93.93,0,0,1-1,1,.94.94,0,0,1-1-1,1,1,0,0,1,1-1A.93.93,0,0,1,946.35,423.12Zm-1.76,11.16v-8.71h1.58v8.71Z" transform="translate(-130 -51)"/><path class="cls-8" d="M955,434a5.91,5.91,0,0,1-2.5.5,4.14,4.14,0,0,1-4.34-4.44,4.43,4.43,0,0,1,4.68-4.63,5.23,5.23,0,0,1,2.2.45l-.36,1.22a3.75,3.75,0,0,0-1.84-.41,3.28,3.28,0,0,0-.05,6.55,4.45,4.45,0,0,0,1.94-.43Z" transform="translate(-130 -51)"/><path class="cls-8" d="M957.64,430.21a2.79,2.79,0,0,0,3,3,5.75,5.75,0,0,0,2.41-.45l.27,1.13a7.09,7.09,0,0,1-2.9.54,4,4,0,0,1-4.28-4.39c0-2.63,1.55-4.7,4.08-4.7,2.85,0,3.61,2.5,3.61,4.11a5.28,5.28,0,0,1-.06.73Zm4.65-1.13a2.27,2.27,0,0,0-2.2-2.58,2.63,2.63,0,0,0-2.43,2.58Z" transform="translate(-130 -51)"/><path d="M969,428.21v-1.08h9.29v1.08Zm0,3.53v-1.08h9.29v1.08Z" transform="translate(-130 -51)"/><path d="M991.43,431.91c0,.9,0,1.69.07,2.37h-1.41l-.09-1.42h0a3.29,3.29,0,0,1-2.88,1.62c-1.37,0-3-.76-3-3.82v-5.09h1.59v4.82c0,1.66.5,2.78,1.94,2.78a2.3,2.3,0,0,0,2.09-1.44,2.38,2.38,0,0,0,.14-.81v-5.35h1.59Z" transform="translate(-130 -51)"/><path d="M993.84,432.66a4.07,4.07,0,0,0,2.09.63c1.15,0,1.69-.57,1.69-1.29s-.45-1.17-1.62-1.61c-1.57-.55-2.31-1.42-2.31-2.46,0-1.41,1.14-2.56,3-2.56a4.31,4.31,0,0,1,2.14.54l-.39,1.15a3.51,3.51,0,0,0-1.79-.5c-.93,0-1.45.54-1.45,1.19s.52,1,1.65,1.47c1.51.58,2.29,1.34,2.29,2.63,0,1.53-1.19,2.61-3.26,2.61a5,5,0,0,1-2.45-.59Z" transform="translate(-130 -51)"/><path d="M1002.06,430.21a2.8,2.8,0,0,0,3,3,5.71,5.71,0,0,0,2.41-.45l.27,1.13a7,7,0,0,1-2.89.54,4,4,0,0,1-4.29-4.39c0-2.63,1.55-4.7,4.09-4.7,2.84,0,3.6,2.5,3.6,4.11a5.28,5.28,0,0,1-.06.73Zm4.65-1.13a2.26,2.26,0,0,0-2.2-2.58,2.63,2.63,0,0,0-2.43,2.58Z" transform="translate(-130 -51)"/><path d="M1010.25,422.15h6.54v1.31h-5v4h4.59v1.29h-4.59v5.49h-1.57Z" transform="translate(-130 -51)"/><path d="M1026.29,429.85a4.26,4.26,0,0,1-4.34,4.63,4.14,4.14,0,0,1-4.17-4.48c0-2.92,1.9-4.63,4.32-4.63S1026.29,427.19,1026.29,429.85Zm-6.91.09c0,1.91,1.1,3.35,2.65,3.35s2.64-1.42,2.64-3.38c0-1.48-.74-3.35-2.61-3.35S1019.38,428.29,1019.38,429.94Z" transform="translate(-130 -51)"/><path d="M1036.17,429.85a4.25,4.25,0,0,1-4.33,4.63,4.14,4.14,0,0,1-4.18-4.48c0-2.92,1.91-4.63,4.32-4.63S1036.17,427.19,1036.17,429.85Zm-6.91.09c0,1.91,1.1,3.35,2.65,3.35s2.64-1.42,2.64-3.38c0-1.48-.73-3.35-2.61-3.35S1029.26,428.29,1029.26,429.94Z" transform="translate(-130 -51)"/><path d="M1038,432.38a5.57,5.57,0,0,0,2.81.79c1.6,0,2.54-.85,2.54-2.07s-.65-1.79-2.29-2.42c-2-.7-3.21-1.72-3.21-3.44,0-1.89,1.57-3.29,3.93-3.29a5.59,5.59,0,0,1,2.68.59l-.43,1.28a4.94,4.94,0,0,0-2.3-.57c-1.66,0-2.29,1-2.29,1.81,0,1.14.74,1.7,2.41,2.35,2.05.79,3.1,1.78,3.1,3.56s-1.39,3.49-4.25,3.49a6.32,6.32,0,0,1-3.1-.77Z" transform="translate(-130 -51)"/><path d="M1048,430.21a2.78,2.78,0,0,0,3,3,5.8,5.8,0,0,0,2.42-.45l.27,1.13a7.13,7.13,0,0,1-2.9.54,4,4,0,0,1-4.29-4.39c0-2.63,1.55-4.7,4.09-4.7,2.84,0,3.6,2.5,3.6,4.11,0,.32,0,.57,0,.73Zm4.64-1.13a2.26,2.26,0,0,0-2.2-2.58,2.63,2.63,0,0,0-2.43,2.58Z" transform="translate(-130 -51)"/><path d="M1056.17,428.29c0-1,0-1.91-.07-2.72h1.38l.06,1.71h.07a2.62,2.62,0,0,1,2.41-1.91,2,2,0,0,1,.45.05v1.5a2.16,2.16,0,0,0-.54-.05,2.21,2.21,0,0,0-2.12,2,4.14,4.14,0,0,0-.07.74v4.64h-1.57Z" transform="translate(-130 -51)"/><path d="M1063.12,425.57l1.71,4.9a21.68,21.68,0,0,1,.7,2.23h.06c.19-.72.45-1.44.73-2.23l1.7-4.9h1.65l-3.42,8.71h-1.51l-3.31-8.71Z" transform="translate(-130 -51)"/><path d="M1072.93,423.12a1,1,0,0,1-2,0,1,1,0,0,1,1-1A.94.94,0,0,1,1072.93,423.12Zm-1.77,11.16v-8.71h1.59v8.71Z" transform="translate(-130 -51)"/><path d="M1081.59,434a6,6,0,0,1-2.51.5,4.13,4.13,0,0,1-4.33-4.44,4.42,4.42,0,0,1,4.68-4.63,5.21,5.21,0,0,1,2.19.45l-.36,1.22a3.74,3.74,0,0,0-1.83-.41,3.28,3.28,0,0,0-.06,6.55,4.5,4.5,0,0,0,2-.43Z" transform="translate(-130 -51)"/><path d="M1084.21,430.21a2.8,2.8,0,0,0,3,3,5.8,5.8,0,0,0,2.42-.45l.26,1.13a7,7,0,0,1-2.89.54,4,4,0,0,1-4.29-4.39c0-2.63,1.55-4.7,4.09-4.7,2.84,0,3.6,2.5,3.6,4.11,0,.32,0,.57-.05.73Zm4.65-1.13a2.26,2.26,0,0,0-2.2-2.58,2.63,2.63,0,0,0-2.43,2.58Z" transform="translate(-130 -51)"/><path d="M1095.79,421.79a11.81,11.81,0,0,0-2.27,7.36,12.11,12.11,0,0,0,2.27,7.31h-1.25a11.66,11.66,0,0,1-2.35-7.31,11.9,11.9,0,0,1,2.35-7.36Z" transform="translate(-130 -51)"/><path d="M1096.51,436.46a12.16,12.16,0,0,0,2.27-7.36,12,12,0,0,0-2.27-7.31h1.22a11.47,11.47,0,0,1,2.36,7.33,11.7,11.7,0,0,1-2.36,7.34Z" transform="translate(-130 -51)"/><path d="M1101.56,436.5a25.59,25.59,0,0,0,1.09-4.31l1.74-.18a22.65,22.65,0,0,1-1.73,4.38Zm.78-9.49a1.06,1.06,0,0,1,1.06-1.14,1.13,1.13,0,1,1-1.06,1.14Z" transform="translate(-130 -51)"/><line class="cls-2" x1="311" y1="277" x2="324.06" y2="354.43"/><polygon class="cls-3" points="315.82 343.83 317.56 342.84 324.03 354.24 326.4 341.35 328.36 341.71 325 360 315.82 343.83"/><line class="cls-9" x1="788" y1="277" x2="801.06" y2="354.43"/><polygon class="cls-10" points="792.82 343.83 794.56 342.84 801.03 354.24 803.4 341.35 805.37 341.71 802 360 792.82 343.83"/></svg>