<?xml version="1.0" encoding="utf-8"?>
<!-- Generator: Adobe Illustrator 24.1.2, SVG Export Plug-In . SVG Version: 6.00 Build 0)  -->
<svg version="1.1" xmlns="http://www.w3.org/2000/svg" xmlns:xlink="http://www.w3.org/1999/xlink" x="0px" y="0px"
	 viewBox="0 0 5400 2846.5" style="enable-background:new 0 0 5400 2846.5;" xml:space="preserve">
<style type="text/css">
	.st0{fill:#212528;}
	.st1{fill:#18191D;}
	.st2{opacity:0.6;fill-rule:evenodd;clip-rule:evenodd;fill:#FFFFFF;}
	.st3{fill:url(#SVGID_1_);}
	.st4{opacity:0.6;fill:#FFFFFF;}
	.st5{fill:url(#SVGID_2_);}
	.st6{fill:url(#SVGID_3_);}
	.st7{fill:url(#SVGID_4_);}
	.st8{fill:url(#SVGID_5_);}
	.st9{fill-rule:evenodd;clip-rule:evenodd;fill:url(#SVGID_6_);}
	.st10{fill:url(#SVGID_7_);}
	.st11{fill:url(#SVGID_8_);}
	.st12{fill:url(#SVGID_9_);}
	.st13{fill:url(#SVGID_10_);}
	.st14{fill:url(#SVGID_11_);}
	.st15{fill:url(#SVGID_12_);}
	.st16{fill:url(#SVGID_13_);}
	.st17{filter:url(#Adobe_OpacityMaskFilter);}
	.st18{filter:url(#Adobe_OpacityMaskFilter_1_);}
	.st19{mask:url(#SVGID_14_);fill:url(#SVGID_15_);}
	.st20{fill:url(#SVGID_16_);}
	.st21{fill:#F9F9F9;}
</style>
<g id="Layer_2">
	<rect y="-543.3" class="st0" width="5400" height="4100"/>
</g>
<g id="Layer_1">
	<polygon class="st1" points="0,1686.9 3309,3556.7 0,3556.7 	"/>
</g>
<g id="Layer_3">
	<g>
		<path class="st2" d="M1018.9,507.3c9.7,5.2,9.7,13.7-0.1,19L488.1,812c-9.8,5.3-25.7,5.4-35.4,0.2l0,0c-9.8-5.2-9.7-13.7,0.1-19
			l530.7-285.7C993.3,502.2,1009.2,502.1,1018.9,507.3L1018.9,507.3z"/>
		<path class="st2" d="M1705.9,873.7c9.7,5.2,9.7,13.7-0.1,19L1175,1178.3c-9.8,5.3-25.7,5.4-35.4,0.2l0,0c-9.8-5.2-9.7-13.7,0.1-19
			l530.7-285.7C1680.2,868.6,1696.1,868.5,1705.9,873.7L1705.9,873.7z"/>
		<path class="st2" d="M1437,736.2c9.7,5.2,9.7,13.7-0.1,19l-530.7,285.7c-9.8,5.3-25.7,5.4-35.4,0.2l0,0c-9.7-5.2-9.7-13.7,0.1-19
			l530.7-285.7C1411.4,731.1,1427.3,731,1437,736.2L1437,736.2z"/>
		<path class="st2" d="M1347.5,330.5c9.8,5.2,9.7,13.7-0.1,19l-242,130.2c-9.8,5.3-25.7,5.4-35.4,0.2l0,0c-9.7-5.2-9.7-13.7,0.1-19
			l242-130.2C1321.8,325.4,1337.7,325.3,1347.5,330.5L1347.5,330.5z"/>
		
			<linearGradient id="SVGID_1_" gradientUnits="userSpaceOnUse" x1="860.1445" y1="364.4371" x2="1207.5383" y2="364.4371" gradientTransform="matrix(0.9695 -0.5218 0.9626 0.5134 -628.7444 1134.8805)">
			<stop  offset="0.296" style="stop-color:#00AFFF"/>
			<stop  offset="0.694" style="stop-color:#5282FF"/>
			<stop  offset="1" style="stop-color:#945DFF"/>
		</linearGradient>
		<path class="st3" d="M857.3,692L556.1,854.2c-9.8,5.3-9.9,13.8-0.1,19c9.7,5.2,25.6,5.1,35.4-0.2l301.2-162.1
			c9.8-5.3,9.9-13.8,0.1-19C883,686.7,867.2,686.8,857.3,692z"/>
		<path class="st4" d="M1329.5,943.9L1028.3,1106c-9.8,5.3-9.9,13.8-0.1,19c9.7,5.2,25.6,5.1,35.4-0.2l301.2-162.1
			c9.8-5.3,9.9-13.8,0.1-19C1355.2,938.5,1339.3,938.6,1329.5,943.9z"/>
		<path class="st4" d="M1204.7,612.2L903.5,774.4c-9.8,5.3-9.9,13.8-0.1,19c9.7,5.2,25.6,5.1,35.4-0.2L1240,631.1
			c9.8-5.3,9.9-13.8,0.1-19C1230.4,606.9,1214.5,607,1204.7,612.2z"/>
		<path class="st4" d="M1909.5,988.1l-301.2,162.1c-9.8,5.3-9.9,13.8-0.1,19c9.7,5.2,25.6,5.1,35.4-0.2l301.2-162.1
			c9.8-5.3,9.9-13.8,0.1-19C1935.2,982.8,1919.3,982.8,1909.5,988.1z"/>
		
			<linearGradient id="SVGID_2_" gradientUnits="userSpaceOnUse" x1="1062.8965" y1="1074.2672" x2="1410.2913" y2="1074.2672" gradientTransform="matrix(0.9695 -0.5218 0.9626 0.5134 -628.7444 1134.8805)">
			<stop  offset="0.108" style="stop-color:#C757BC"/>
			<stop  offset="0.173" style="stop-color:#CD5CA9"/>
			<stop  offset="0.492" style="stop-color:#E8744F"/>
			<stop  offset="0.716" style="stop-color:#F88316"/>
			<stop  offset="0.823" style="stop-color:#FF8900"/>
		</linearGradient>
		<path class="st5" d="M1737.2,950.7L1436,1112.8c-9.8,5.3-9.9,13.8-0.1,19c9.7,5.2,25.6,5.1,35.4-0.2l301.2-162.1
			c9.8-5.3,9.9-13.8,0.1-19C1762.9,945.3,1747,945.4,1737.2,950.7z"/>
		<path class="st4" d="M1674,473.9l-301.2,162.1c-9.8,5.3-9.9,13.8-0.1,19c9.8,5.2,25.6,5.1,35.4-0.2l301.2-162.1
			c9.8-5.3,9.9-13.8,0.1-19C1699.6,468.6,1683.8,468.7,1674,473.9z"/>
		<path class="st4" d="M839.7,827.6c9.7,5.2,9.7,13.7-0.1,19l-148.1,79.7c-9.8,5.3-25.7,5.4-35.4,0.2l0,0c-9.7-5.2-9.7-13.7,0.1-19
			l148.1-79.7C814.1,822.5,830,822.4,839.7,827.6L839.7,827.6z"/>
		<path class="st4" d="M1544.5,1203.5c9.7,5.2,9.7,13.7-0.1,19l-148.1,79.7c-9.8,5.3-25.7,5.4-35.4,0.2l0,0
			c-9.7-5.2-9.7-13.7,0.1-19l148.1-79.7C1518.9,1198.4,1534.8,1198.3,1544.5,1203.5L1544.5,1203.5z"/>
		<path class="st4" d="M2181.4,860.7c9.7,5.2,9.7,13.7-0.1,19l-148.1,79.7c-9.8,5.3-25.7,5.4-35.4,0.2l0,0c-9.7-5.2-9.7-13.7,0.1-19
			l148.1-79.7C2155.8,855.6,2171.7,855.5,2181.4,860.7L2181.4,860.7z"/>
		
			<linearGradient id="SVGID_3_" gradientUnits="userSpaceOnUse" x1="860.1514" y1="579.1284" x2="1235.0521" y2="579.1284" gradientTransform="matrix(0.9695 -0.5218 0.9626 0.5134 -628.7444 1134.8805)">
			<stop  offset="0.108" style="stop-color:#C757BC"/>
			<stop  offset="0.173" style="stop-color:#CD5CA9"/>
			<stop  offset="0.492" style="stop-color:#E8744F"/>
			<stop  offset="0.716" style="stop-color:#F88316"/>
			<stop  offset="0.823" style="stop-color:#FF8900"/>
		</linearGradient>
		<path class="st6" d="M1126.1,787.8c9.8,5.3,9.2,14.2-1.4,19.9L799.7,982.5c-10.6,5.7-27.2,6.1-37.1,0.9l0,0
			c-9.9-5.3-9.2-14.2,1.4-19.9L1089,788.6C1099.6,782.9,1116.3,782.5,1126.1,787.8L1126.1,787.8z"/>
		
			<linearGradient id="SVGID_4_" gradientUnits="userSpaceOnUse" x1="1286.9777" y1="579.116" x2="1444.251" y2="579.116" gradientTransform="matrix(0.9695 -0.5218 0.9626 0.5134 -628.7444 1134.8805)">
			<stop  offset="0.296" style="stop-color:#00AFFF"/>
			<stop  offset="0.694" style="stop-color:#5282FF"/>
			<stop  offset="1" style="stop-color:#945DFF"/>
		</linearGradient>
		<path class="st7" d="M1328.9,678.6c10,5.3,10,14.1-0.1,19.5l-115.9,62.4c-10.1,5.4-26.4,5.5-36.4,0.2l0,0
			c-10-5.3-10-14.1,0.1-19.5l115.9-62.4C1302.6,673.3,1318.9,673.2,1328.9,678.6L1328.9,678.6z"/>
		
			<linearGradient id="SVGID_5_" gradientUnits="userSpaceOnUse" x1="860.1675" y1="1074.2808" x2="1017.4411" y2="1074.2808" gradientTransform="matrix(0.9695 -0.5218 0.9626 0.5134 -628.7444 1134.8805)">
			<stop  offset="0.296" style="stop-color:#00AFFF"/>
			<stop  offset="0.694" style="stop-color:#5282FF"/>
			<stop  offset="1" style="stop-color:#945DFF"/>
		</linearGradient>
		<path class="st8" d="M1391.8,1155.5c10,5.3,10,14.1-0.1,19.5l-115.9,62.4c-10.1,5.4-26.4,5.5-36.4,0.2l0,0
			c-10-5.3-10-14.1,0.1-19.5l115.9-62.4C1365.4,1150.2,1381.7,1150.2,1391.8,1155.5L1391.8,1155.5z"/>
		<path class="st4" d="M1469.7,1341.4l301.2-162.1c9.8-5.3,25.7-5.4,35.4-0.2c9.7,5.2,9.7,13.7-0.1,19L1505,1360.2
			c-9.8,5.3-25.7,5.4-35.4,0.2C1459.8,1355.2,1459.9,1346.7,1469.7,1341.4z"/>
		<path class="st4" d="M1850.4,1155.4c10,5.3,26.3,5.3,36.4-0.2l115.9-62.4c10.1-5.4,10.2-14.2,0.1-19.5l0,0
			c-10-5.3-26.3-5.3-36.4,0.2l-115.9,62.4C1840.5,1141.3,1840.4,1150.1,1850.4,1155.4L1850.4,1155.4z"/>
		<path class="st4" d="M1639.7,627.1c10,5.3,10,14.1-0.1,19.5L1523.7,709c-10.1,5.4-26.4,5.5-36.4,0.2l0,0c-10-5.3-10-14.1,0.1-19.5
			l115.9-62.4C1613.4,621.9,1629.7,621.8,1639.7,627.1L1639.7,627.1z"/>
		<path class="st4" d="M2370.5,758.9c10,5.3,10,14.1-0.1,19.5l-115.9,62.4c-10.1,5.4-26.4,5.5-36.4,0.2l0,0
			c-10-5.3-10-14.1,0.1-19.5l115.9-62.4C2344.1,753.7,2360.4,753.6,2370.5,758.9L2370.5,758.9z"/>
		<path class="st4" d="M1817.5,531.4c10,5.3,10,14.1-0.1,19.5l-115.9,62.4c-10.1,5.4-26.4,5.5-36.4,0.2l0,0
			c-10-5.3-10-14.1,0.1-19.5l115.9-62.4C1791.2,526.2,1807.5,526.1,1817.5,531.4L1817.5,531.4z"/>
	</g>
	<g>
		<path class="st2" d="M2970.8,1653.5c9.9,5,10,13.5,0.3,19l-523.6,298.4c-9.7,5.5-25.5,6-35.4,1l0,0c-9.9-5-10-13.5-0.3-19
			l523.6-298.4C2945,1649,2960.9,1648.5,2970.8,1653.5L2970.8,1653.5z"/>
		<path class="st2" d="M3666.4,2003.1c9.9,5,10,13.5,0.3,19L3143,2320.5c-9.7,5.5-25.5,6-35.4,1l0,0c-9.9-5-10-13.5-0.3-19
			l523.6-298.4C3640.6,1998.6,3656.5,1998.1,3666.4,2003.1L3666.4,2003.1z"/>
		<path class="st2" d="M3394.3,1872.2c9.9,5,10,13.5,0.3,19L2871,2189.6c-9.7,5.5-25.5,6-35.4,1l0,0c-9.9-5-10-13.5-0.3-19
			l523.6-298.4C3368.6,1867.7,3384.4,1867.2,3394.3,1872.2L3394.3,1872.2z"/>
		
			<linearGradient id="SVGID_6_" gradientUnits="userSpaceOnUse" x1="2897.1792" y1="1718.8776" x2="3189.2612" y2="1718.8776" gradientTransform="matrix(0.9997 -2.420000e-02 2.420000e-02 0.9997 -45.8617 81.8337)">
			<stop  offset="0.108" style="stop-color:#C757BC"/>
			<stop  offset="0.173" style="stop-color:#CD5CA9"/>
			<stop  offset="0.492" style="stop-color:#E8744F"/>
			<stop  offset="0.716" style="stop-color:#F88316"/>
			<stop  offset="0.823" style="stop-color:#FF8900"/>
		</linearGradient>
		<path class="st9" d="M3175,1648.5c9.9,5,10,13.5,0.3,19l-238.8,136.1c-9.7,5.5-25.5,6-35.4,1l0,0c-9.9-5-10-13.5-0.3-19
			l238.8-136.1C3149.2,1644,3165.1,1643.6,3175,1648.5L3175,1648.5z"/>
		
			<linearGradient id="SVGID_7_" gradientUnits="userSpaceOnUse" x1="772.0396" y1="2488.5754" x2="1119.4277" y2="2488.5754" gradientTransform="matrix(0.9566 -0.5451 0.9747 0.49 -647.35 1231.8073)">
			<stop  offset="0.296" style="stop-color:#00AFFF"/>
			<stop  offset="0.694" style="stop-color:#5282FF"/>
			<stop  offset="1" style="stop-color:#945DFF"/>
		</linearGradient>
		<path class="st10" d="M2813.7,1842l-297.2,169.4c-9.7,5.5-9.5,14,0.3,19c9.9,5,25.7,4.5,35.4-1l297.2-169.4c9.7-5.5,9.5-14-0.3-19
			C2839.2,1836,2823.4,1836.5,2813.7,1842z"/>
		
			<linearGradient id="SVGID_8_" gradientUnits="userSpaceOnUse" x1="1814.1919" y1="2696.856" x2="2161.5801" y2="2696.856" gradientTransform="matrix(0.9566 -0.5451 0.9747 0.49 -647.35 1231.8073)">
			<stop  offset="0.296" style="stop-color:#00AFFF"/>
			<stop  offset="0.694" style="stop-color:#5282FF"/>
			<stop  offset="1" style="stop-color:#945DFF"/>
		</linearGradient>
		<path class="st11" d="M4013.6,1376l-297.2,169.4c-9.7,5.5-9.5,14,0.3,19c9.9,5,25.7,4.5,35.4-1l297.2-169.4c9.7-5.5,9.5-14-0.3-19
			C4039.2,1370,4023.3,1370.5,4013.6,1376z"/>
		<path class="st4" d="M3291.8,2082.3l-297.2,169.4c-9.7,5.5-9.5,14,0.3,19c9.9,5,25.7,4.5,35.4-1l297.2-169.4
			c9.7-5.5,9.5-14-0.3-19C3317.4,2076.4,3301.5,2076.8,3291.8,2082.3z"/>
		<path class="st4" d="M3159,1753.8l-297.2,169.4c-9.7,5.5-9.5,14,0.3,19c9.9,5,25.7,4.5,35.4-1l297.2-169.4c9.7-5.5,9.5-14-0.3-19
			C3184.6,1747.9,3168.7,1748.3,3159,1753.8z"/>
		<path class="st4" d="M3872.7,2112.6L3575.5,2282c-9.7,5.5-9.5,14,0.3,19c9.9,5,25.7,4.5,35.4-1l297.2-169.4c9.7-5.5,9.5-14-0.3-19
			C3898.3,2106.6,3882.4,2107.1,3872.7,2112.6z"/>
		
			<linearGradient id="SVGID_9_" gradientUnits="userSpaceOnUse" x1="974.8087" y1="3198.4084" x2="1322.1997" y2="3198.4084" gradientTransform="matrix(0.9566 -0.5451 0.9747 0.49 -647.35 1231.8073)">
			<stop  offset="0.108" style="stop-color:#C757BC"/>
			<stop  offset="0.173" style="stop-color:#CD5CA9"/>
			<stop  offset="0.492" style="stop-color:#E8744F"/>
			<stop  offset="0.716" style="stop-color:#F88316"/>
			<stop  offset="0.823" style="stop-color:#FF8900"/>
		</linearGradient>
		<path class="st12" d="M3699.5,2079.3l-297.2,169.4c-9.7,5.5-9.5,14,0.3,19c9.9,5,25.7,4.5,35.4-1l297.2-169.4
			c9.7-5.5,9.5-14-0.3-19C3725.1,2073.3,3709.2,2073.8,3699.5,2079.3z"/>
		<path class="st4" d="M3624.8,1604.2l-297.2,169.4c-9.7,5.5-9.5,14,0.3,19c9.9,5,25.7,4.5,35.4-1l297.2-169.4
			c9.7-5.5,9.5-14-0.3-19C3650.4,1598.3,3634.5,1598.7,3624.8,1604.2z"/>
		<path class="st4" d="M2799.3,1978c9.9,5,10,13.5,0.3,19l-146.2,83.3c-9.7,5.5-25.5,6-35.4,1l0,0c-9.9-5-10-13.5-0.3-19l146.2-83.3
			C2773.6,1973.5,2789.5,1973,2799.3,1978L2799.3,1978z"/>
		<path class="st4" d="M3513,2336.7c9.9,5,10,13.5,0.3,19l-146.2,83.3c-9.7,5.5-25.5,6-35.4,1l0,0c-9.9-5-10-13.5-0.3-19l146.2-83.3
			C3487.3,2332.2,3503.2,2331.8,3513,2336.7L3513,2336.7z"/>
		<path class="st4" d="M4141.5,1978.6c9.9,5,10,13.5,0.3,19l-146.2,83.3c-9.7,5.5-25.5,6-35.4,1l0,0c-9.9-5-10-13.5-0.3-19
			l146.2-83.3C4115.7,1974.1,4131.6,1973.7,4141.5,1978.6L4141.5,1978.6z"/>
		
			<linearGradient id="SVGID_10_" gradientUnits="userSpaceOnUse" x1="772.0525" y1="2703.2666" x2="1146.9479" y2="2703.2666" gradientTransform="matrix(0.9566 -0.5451 0.9747 0.49 -647.35 1231.8073)">
			<stop  offset="0.108" style="stop-color:#C757BC"/>
			<stop  offset="0.173" style="stop-color:#CD5CA9"/>
			<stop  offset="0.492" style="stop-color:#E8744F"/>
			<stop  offset="0.716" style="stop-color:#F88316"/>
			<stop  offset="0.823" style="stop-color:#FF8900"/>
		</linearGradient>
		<path class="st13" d="M3084.7,1931.2c10,5,9.6,13.9-0.9,19.9l-320.6,182.7c-10.5,6-27.1,6.8-37.1,1.8l0,0c-10-5-9.6-13.9,0.9-19.9
			l320.6-182.7C3058.1,1927,3074.7,1926.2,3084.7,1931.2L3084.7,1931.2z"/>
		
			<linearGradient id="SVGID_11_" gradientUnits="userSpaceOnUse" x1="1198.873" y1="2703.2605" x2="1356.1444" y2="2703.2605" gradientTransform="matrix(0.9566 -0.5451 0.9747 0.49 -647.35 1231.8073)">
			<stop  offset="0.296" style="stop-color:#00AFFF"/>
			<stop  offset="0.694" style="stop-color:#5282FF"/>
			<stop  offset="1" style="stop-color:#945DFF"/>
		</linearGradient>
		<path class="st14" d="M3284.8,1817.2c10.2,5.1,10.3,13.8,0.3,19.5l-114.4,65.2c-10,5.7-26.3,6.1-36.4,1l0,0
			c-10.2-5.1-10.3-13.8-0.3-19.5l114.4-65.2C3258.3,1812.5,3274.7,1812.1,3284.8,1817.2L3284.8,1817.2z"/>
		
			<linearGradient id="SVGID_12_" gradientUnits="userSpaceOnUse" x1="1817.7437" y1="2806.6838" x2="1975.0151" y2="2806.6838" gradientTransform="matrix(0.9566 -0.5451 0.9747 0.49 -647.35 1231.8073)">
			<stop  offset="0.108" style="stop-color:#C757BC"/>
			<stop  offset="0.173" style="stop-color:#CD5CA9"/>
			<stop  offset="0.492" style="stop-color:#E8744F"/>
			<stop  offset="0.716" style="stop-color:#F88316"/>
			<stop  offset="0.823" style="stop-color:#FF8900"/>
		</linearGradient>
		<path class="st15" d="M3977.6,1530.5c10.2,5.1,10.3,13.8,0.3,19.5l-114.4,65.2c-10,5.7-26.3,6.1-36.4,1l0,0
			c-10.2-5.1-10.3-13.8-0.3-19.5l114.4-65.2C3951.2,1525.9,3967.5,1525.4,3977.6,1530.5L3977.6,1530.5z"/>
		
			<linearGradient id="SVGID_13_" gradientUnits="userSpaceOnUse" x1="772.0847" y1="3198.4163" x2="929.3547" y2="3198.4163" gradientTransform="matrix(0.9566 -0.5451 0.9747 0.49 -647.35 1231.8073)">
			<stop  offset="0.296" style="stop-color:#00AFFF"/>
			<stop  offset="0.694" style="stop-color:#5282FF"/>
			<stop  offset="1" style="stop-color:#945DFF"/>
		</linearGradient>
		<path class="st16" d="M3359.2,2292.4c10.2,5.1,10.3,13.8,0.3,19.5l-114.4,65.2c-10,5.7-26.3,6.1-36.4,1l0,0
			c-10.2-5.1-10.3-13.8-0.3-19.5l114.4-65.2C3332.7,2287.8,3349,2287.3,3359.2,2292.4L3359.2,2292.4z"/>
		<path class="st4" d="M3441.6,2476.4l297.2-169.4c9.7-5.5,25.5-6,35.4-1c9.9,5,10,13.5,0.3,19l-297.2,169.4c-9.7,5.5-25.5,6-35.4,1
			C3432,2490.4,3431.9,2481.9,3441.6,2476.4z"/>
		<path class="st4" d="M3817.7,2281.2c10.2,5.1,26.5,4.6,36.4-1l114.4-65.2c10-5.7,9.8-14.4-0.3-19.5l0,0c-10.2-5.1-26.5-4.6-36.4,1
			l-114.4,65.2C3807.4,2267.4,3807.6,2276.1,3817.7,2281.2L3817.7,2281.2z"/>
		<path class="st4" d="M3594.3,1758.2c10.2,5.1,10.3,13.8,0.3,19.5l-114.4,65.2c-10,5.7-26.3,6.1-36.4,1l0,0
			c-10.2-5.1-10.3-13.8-0.3-19.5l114.4-65.2C3567.8,1753.6,3584.1,1753.1,3594.3,1758.2L3594.3,1758.2z"/>
		<path class="st4" d="M4328,1872.3c10.2,5.1,10.3,13.8,0.3,19.5L4214,1957c-10,5.7-26.3,6.1-36.4,1l0,0
			c-10.2-5.1-10.3-13.8-0.3-19.5l114.4-65.2C4301.5,1867.7,4317.8,1867.2,4328,1872.3L4328,1872.3z"/>
		<path class="st4" d="M3769.7,1658.3c10.2,5.1,10.3,13.8,0.3,19.5l-114.4,65.2c-10,5.7-26.3,6.1-36.4,1l0,0
			c-10.2-5.1-10.3-13.8-0.3-19.5l114.4-65.2C3743.2,1653.6,3759.6,1653.2,3769.7,1658.3L3769.7,1658.3z"/>
	</g>
	<defs>
		<filter id="Adobe_OpacityMaskFilter" filterUnits="userSpaceOnUse" x="3309" y="-543.3" width="2091" height="1151.5">
			<feFlood  style="flood-color:white;flood-opacity:1" result="back"/>
			<feBlend  in="SourceGraphic" in2="back" mode="normal"/>
		</filter>
	</defs>
	<mask maskUnits="userSpaceOnUse" x="3309" y="-543.3" width="2091" height="1151.5" id="SVGID_14_">
		<g class="st17">
			<defs>
				<filter id="Adobe_OpacityMaskFilter_1_" filterUnits="userSpaceOnUse" x="3309" y="-543.3" width="2091" height="1151.5">
					<feFlood  style="flood-color:white;flood-opacity:1" result="back"/>
					<feBlend  in="SourceGraphic" in2="back" mode="normal"/>
				</filter>
			</defs>
			<mask maskUnits="userSpaceOnUse" x="3309" y="-543.3" width="2091" height="1151.5" id="SVGID_14_">
				<g class="st18">
				</g>
			</mask>
			<linearGradient id="SVGID_15_" gradientUnits="userSpaceOnUse" x1="3309" y1="32.4844" x2="5400" y2="32.4844">
				<stop  offset="0" style="stop-color:#000000"/>
				<stop  offset="1" style="stop-color:#FFFFFF"/>
			</linearGradient>
			<polygon class="st19" points="3309,-543.3 5400,608.2 5400,-543.3 			"/>
		</g>
	</mask>
	<linearGradient id="SVGID_16_" gradientUnits="userSpaceOnUse" x1="3309" y1="32.4844" x2="5400" y2="32.4844">
		<stop  offset="0" style="stop-color:#18191D"/>
		<stop  offset="1" style="stop-color:#18191D"/>
	</linearGradient>
	<polygon class="st20" points="3309,-543.3 5400,608.2 5400,-543.3 	"/>
	<g>
		<g>
			<path class="st21" d="M1836.9,1769.2L1762,1814l-179.8-30c-16.4-2.8-31.1-4.8-44.1-6c-13-1.2-24.7-1.5-35.1-1
				c-10.4,0.5-20,2-28.7,4.6c-8.7,2.6-17.1,6.3-25.2,11.1l-25.9,15.5l178.9,101.4l-63.9,38.2L1097.3,1698l127.3-76
				c18.2-10.8,37.3-19.4,57.5-25.8c20.2-6.3,40.9-10.1,62.2-11.2c21.3-1.1,42.5,0.6,63.8,5.2c21.2,4.6,41.8,12.5,61.7,23.8
				c15.6,8.8,27.9,18.1,36.8,27.9c9,9.8,14.8,19.8,17.5,30c2.7,10.2,2.4,20.5-1,30.8c-3.3,10.3-9.6,20.5-18.8,30.6l1.2,0.7
				c11.5-1.6,22.6-2.5,33.2-2.5c10.6,0,21.2,0.2,31.6,0.6c10.4,0.5,21.6,1.4,33.4,2.8c11.9,1.4,25.4,3.1,40.6,5.3L1836.9,1769.2z
				 M1220.5,1693.4l143.3,81.2l53.4-31.9c9.9-5.9,17.3-12.3,22.1-19.3c4.9-7,7.1-14.1,6.6-21.5c-0.4-7.4-3.7-14.7-9.7-22.1
				c-6-7.4-14.9-14.4-26.5-21c-21.1-12-43.5-17.8-67-17.6c-23.6,0.2-46.3,6.9-68.2,20L1220.5,1693.4z"/>
			<path class="st21" d="M1956.1,1537.4l-188.2,112.4c29.8,16.1,60.1,24.1,90.9,24.1c30.8,0,59.3-7.9,85.6-23.6
				c29.5-17.6,46.5-39.5,51-65.6l57.5,32.6c-7.1,25.3-31.4,50.2-72.7,74.9c-40.6,24.3-86.8,35.2-138.5,32.8
				c-51.7-2.4-103.5-18.3-155.3-47.7c-49-27.8-76.2-58-81.6-90.6c-5.4-32.7,10.7-60.3,48.5-82.8c37.7-22.6,80.8-32.2,129.1-28.8
				c48.3,3.3,97.1,18.9,146.3,46.8L1956.1,1537.4z M1845.2,1544.9c-25.8-14.4-51-22.5-75.7-24.4c-24.7-1.8-46.2,2.7-64.5,13.7
				c-18,10.7-25.7,24.1-23.3,40c2.5,15.9,14.4,31.6,35.7,47L1845.2,1544.9z"/>
			<path class="st21" d="M2365.6,1453.4l-60.7,36.2l-49.2-27.9l-1.1,0.6c18.7,32.7,9.6,60.1-27.3,82.1c-27.1,16.2-56.8,24.2-89,23.8
				c-32.2-0.3-62.1-8.3-89.8-24c-59.4-33.7-64.1-71.2-13.9-112.7l68.7-56.5c-44.9-25.4-86-27-123.4-4.6
				c-32.9,19.7-49.6,44.7-50.2,75.1l-62.4-35.4c9.4-28.5,33.2-54.2,71.3-77c69.7-41.7,143.8-40.3,222.1,4L2365.6,1453.4z
				 M2150.6,1401.8l-48.7,39.9c-15.3,12.2-23.9,23.1-25.7,32.7c-1.8,9.5,6.4,19.5,24.7,29.8c13.3,7.6,28.4,11.2,45.3,11.1
				c16.9-0.2,32.3-4.5,46.3-12.8c19.1-11.4,27.2-25.1,24.4-41.2c-2.8-16.1-15.7-30.7-38.9-43.9L2150.6,1401.8z"/>
			<path class="st21" d="M2625.1,1281.5c-7.6,21.4-26.4,41.2-56.6,59.2c-41,24.5-88.7,36-143,34.5c-54.4-1.5-104.8-15.4-151.4-41.8
				c-51.9-29.4-80-61.1-84.4-95c-4.4-34,16-64.5,61.3-91.6c25.2-15,52.4-25.4,81.7-31.3l66.4,37.6c-35.6,2.2-64.3,9.8-86.1,22.8
				c-26.4,15.8-37.9,34.5-34.4,56.2c3.5,21.7,21.8,41.8,54.8,60.5c32.6,18.5,66.3,28.3,101,29.5c34.8,1.2,65.5-6.2,92.3-22.2
				c22.5-13.4,34.6-31.3,36.3-53.5L2625.1,1281.5z"/>
			<path class="st21" d="M2843.7,1163.7c-5.3,11.3-17.9,22.8-37.8,34.8c-53.6,32-109.7,31.4-168.3-1.8l-178-100.8l-46.1,27.5
				l-56-31.7l46.1-27.5l-72.9-41.3l42.3-48.9l93.2,52.8l66.1-39.5l56,31.7l-66,39.5l157.4,89.2c18.7,10.6,34.9,16.3,48.9,17.3
				c13.9,1,27.8-2.7,41.7-10.9c10.6-6.3,16.3-13.8,17-22.4L2843.7,1163.7z"/>
			<path class="st21" d="M3028.8,873.2c52.3,29.6,81.6,59.4,87.9,89.4c6.4,30-9.3,56.2-47.1,78.8c-17.6,10.5-34.4,17.8-50.5,21.9
				l-68.9-39c18.2-1.6,35.4-7.2,51.6-16.9c42.8-25.6,26.5-59.7-49-102.4l-271.2-153.6l64.2-38.3L3028.8,873.2z"/>
			<path class="st21" d="M3243.4,908.5l-75.3-42.7c12.1-0.1,24.7-1.1,37.8-3.2c13.1-2.1,25.9-4.9,38.5-8.5
				c12.5-3.6,24.3-7.6,35.3-12c11-4.4,20.4-9,28.1-13.6c27-16.1,41.9-31,44.9-44.7c3-13.7-5.3-26.1-24.8-37.1
				c-10.5-5.9-21.7-9.7-33.8-11.5c-12.1-1.7-25.3-2-39.5-0.9c-14.3,1.1-29.7,3.2-46.2,6.3c-16.5,3.1-34.1,6.5-52.7,10.2
				c-21.1,3.3-41.4,6-61,8.1c-19.5,2.1-38.4,2.9-56.7,2.2c-18.3-0.6-36.1-3.1-53.4-7.3c-17.3-4.2-34.3-11.1-51.1-20.6
				c-20.7-11.7-34.6-24.4-41.7-37.9c-7.1-13.5-8.9-27.1-5.5-40.8c3.4-13.6,11.3-26.9,23.6-39.8c12.3-12.9,27.3-24.7,45.1-35.3
				c40.4-24.2,75.1-38.8,104.1-44l72.3,40.9c-40,2.9-77.2,14.6-111.7,35.2c-9.5,5.7-18,11.9-25.4,18.7c-7.4,6.8-12.5,13.8-15.2,20.9
				c-2.7,7.1-2.8,14.2-0.1,21.1c2.7,7,9.3,13.4,19.7,19.3c9.8,5.6,20.1,9.3,30.9,11.2c10.8,1.9,22.6,2.5,35.4,1.7
				c12.9-0.8,27.1-2.5,42.7-5.3c15.6-2.8,33.3-6.2,52.9-10.3c21.5-3.5,42.6-6.4,63.4-8.5c20.8-2.1,41-2.9,60.8-2.3
				c19.7,0.6,38.8,3,57.1,7.2c18.3,4.2,35.8,11,52.4,20.4c22.3,12.7,37.2,25.7,44.7,39.1c7.5,13.4,9.3,26.9,5.6,40.3
				c-3.8,13.5-12.2,26.6-25.3,39.5c-13.1,12.9-29.4,25.1-48.8,36.7c-6.5,3.9-15,8.3-25.6,13.3c-10.6,5-21.9,9.8-33.9,14.5
				c-12,4.7-24,8.8-35.9,12.3C3263.3,905.2,3252.7,907.5,3243.4,908.5z"/>
		</g>
		<g>
			<path class="st21" d="M1766.1,2019.6c19,10.8,29.7,21.6,32,32.6c2.3,10.9-3.4,20.5-17.2,28.7c-6.4,3.8-12.5,6.5-18.4,8
				l-25.1-14.2c6.6-0.6,12.9-2.6,18.8-6.2c15.6-9.3,9.6-21.7-17.8-37.3l-98.8-56l23.4-14L1766.1,2019.6z"/>
			<path class="st21" d="M1929.4,1989l-22.1,13.2l-17.9-10.2l-0.4,0.2c6.8,11.9,3.5,21.9-9.9,29.9c-9.9,5.9-20.7,8.8-32.4,8.7
				c-11.7-0.1-22.6-3-32.7-8.8c-21.7-12.3-23.3-25.9-5.1-41l25-20.6c-16.4-9.3-31.3-9.8-45-1.7c-12,7.2-18.1,16.3-18.3,27.4
				l-22.7-12.9c3.4-10.4,12.1-19.7,26-28c25.4-15.2,52.4-14.7,80.9,1.5L1929.4,1989z M1851.1,1970.3l-17.8,14.5
				c-5.6,4.5-8.7,8.4-9.3,11.9c-0.7,3.5,2.3,7.1,9,10.9c4.9,2.8,10.4,4.1,16.5,4c6.1-0.1,11.8-1.6,16.9-4.7c6.9-4.1,9.9-9.2,8.9-15
				c-1-5.9-5.7-11.2-14.2-16L1851.1,1970.3z"/>
			<path class="st21" d="M1929.1,1855.7l75.8,88.2l-24.7,14.7l-151.7-42.9l24.7-14.8l102.5,32.1c7.6,2.3,13.8,4.6,18.6,6.9l0.3-0.2
				c-4.9-3.5-9-6.9-12.3-10.1l-57.3-59.7L1929.1,1855.7z"/>
			<path class="st21" d="M2133.1,1867.3l-22.1,13.2l-17.9-10.2l-0.4,0.2c6.8,11.9,3.5,21.9-9.9,29.9c-9.9,5.9-20.7,8.8-32.4,8.7
				c-11.7-0.1-22.6-3-32.7-8.8c-21.7-12.3-23.3-25.9-5.1-41l25-20.6c-16.4-9.3-31.3-9.8-45-1.7c-12,7.2-18.1,16.3-18.3,27.4
				l-22.7-12.9c3.4-10.4,12.1-19.7,26-28c25.4-15.2,52.4-14.7,80.9,1.5L2133.1,1867.3z M2054.8,1848.5l-17.8,14.5
				c-5.6,4.5-8.7,8.4-9.4,11.9c-0.7,3.5,2.3,7.1,9,10.9c4.9,2.8,10.4,4.1,16.5,4c6.1-0.1,11.8-1.6,16.9-4.7c6.9-4.2,9.9-9.2,8.9-15
				c-1-5.9-5.7-11.2-14.2-16L2054.8,1848.5z"/>
			<path class="st21" d="M2151,1852.4l-24.1-13.6c15.9-0.9,29-4.4,39.3-10.6c13.7-8.2,16-14.9,6.7-20.2c-2.6-1.5-5.4-2.4-8.4-2.7
				c-3-0.3-6.2-0.3-9.6,0.1c-3.4,0.4-7,1.1-10.9,2.1c-3.8,1-8.1,2.1-12.9,3.3c-6,1.4-11.7,2.5-17.1,3.3c-5.4,0.8-10.5,1.1-15.4,0.9
				c-4.8-0.2-9.5-0.9-14-2.1c-4.5-1.2-9-3.1-13.4-5.7c-5.5-3.1-9.3-6.6-11.2-10.3c-1.9-3.8-2.4-7.6-1.4-11.5c1-3.9,3.2-7.8,6.7-11.5
				c3.5-3.8,7.8-7.2,13-10.3c9.3-5.6,19.2-9.6,29.8-12.2l22.7,12.9c-12.6,1.1-23.5,4.4-32.6,9.9c-2.9,1.7-5.2,3.5-6.8,5.2
				c-1.7,1.8-2.7,3.5-3.1,5.1c-0.4,1.7-0.3,3.2,0.5,4.7c0.8,1.5,2.2,2.8,4.2,4c2.5,1.4,5,2.3,7.6,2.7c2.6,0.4,5.5,0.5,8.6,0.1
				c3.1-0.3,6.5-1,10.1-1.8c3.6-0.9,7.7-2,12.2-3.2c6.3-1.4,12.3-2.6,17.8-3.5c5.5-0.9,10.8-1.3,15.9-1.2c5.1,0.1,10,0.7,14.8,1.9
				c4.8,1.2,9.6,3.1,14.3,5.8c5.8,3.3,9.7,6.9,11.7,10.7c2,3.9,2.4,7.8,1.3,11.7c-1.1,4-3.5,7.9-7.3,11.7
				c-3.8,3.9-8.5,7.5-14.2,10.9C2174.9,1845.5,2163.3,1850,2151,1852.4z"/>
			<path class="st21" d="M2314.4,1752.9c-2.8,7.8-9.6,15-20.6,21.6c-14.9,8.9-32.3,13.1-52.1,12.6c-19.8-0.6-38.2-5.6-55.1-15.2
				c-18.9-10.7-29.1-22.2-30.7-34.6c-1.6-12.4,5.8-23.5,22.3-33.4c9.2-5.5,19.1-9.3,29.7-11.4l24.2,13.7c-13,0.8-23.4,3.6-31.4,8.3
				c-9.6,5.8-13.8,12.6-12.5,20.5c1.3,7.9,7.9,15.2,19.9,22c11.9,6.7,24.1,10.3,36.8,10.7c12.7,0.4,23.9-2.3,33.6-8.1
				c8.2-4.9,12.6-11.4,13.2-19.5L2314.4,1752.9z"/>
			<path class="st21" d="M2310.6,1656.6c-5.2,0.2-10.4,1.9-15.6,5c-6.7,4-8.9,9.4-6.5,16c2.4,6.6,9.6,13.3,21.6,20.1l54.9,31.1
				l-22.8,13.6l-114.7-65l22.8-13.6l23.6,13.4l0.4-0.2c-5.8-5.9-8.7-11.5-8.6-16.8s3-9.7,8.7-13.1c4.1-2.5,8-3.9,11.6-4.4
				L2310.6,1656.6z"/>
			<path class="st21" d="M2289.4,1612.4c-3.7,2.2-8.3,3.4-13.7,3.4c-5.4,0-10.3-1.2-14.5-3.6c-4.3-2.4-6.5-5.2-6.7-8.4
				c-0.2-3.2,1.6-5.9,5.3-8.1c3.9-2.3,8.6-3.5,14.1-3.5c5.5,0,10.4,1.2,14.7,3.6c4,2.3,6.1,5,6.3,8.3
				C2295.1,1607.3,2293.2,1610.1,2289.4,1612.4z M2439.5,1684.3l-22.8,13.6l-114.7-65l22.8-13.6L2439.5,1684.3z"/>
			<path class="st21" d="M2475.5,1643.1l-0.4,0.2l69.7,39.5l-22.8,13.6l-167.5-94.9l22.8-13.6l20.2,11.4l0.4-0.2
				c-7.4-13.3-3.7-24.4,11.3-33.4c12.8-7.6,27.8-10.7,45.2-9.1c17.4,1.5,34.7,7.2,51.9,17c19.1,10.8,30.4,21.9,33.9,33.2
				c3.4,11.3-1.8,21.2-15.8,29.5C2511.6,1643.9,2495.3,1646.2,2475.5,1643.1z M2429.6,1617.8l14.2,8.1c8.4,4.7,17.8,7.4,28.3,7.9
				c10.5,0.5,19.4-1.4,26.6-5.7c8.4-5,11.3-11.1,8.6-18.3c-2.7-7.1-10.8-14.5-24.2-22.1c-11.3-6.4-22.3-10.1-33.2-11
				c-10.9-0.9-20.1,0.9-27.8,5.5c-8.1,4.9-11.4,10.6-9.7,17.3C2414,1606.1,2419.8,1612.2,2429.6,1617.8z"/>
			<path class="st21" d="M2642.2,1561.7c-1.9,4.1-6.5,8.3-13.8,12.7c-19.5,11.7-39.9,11.4-61.3-0.7l-64.9-36.7l-16.8,10l-20.4-11.5
				l16.8-10l-26.5-15l15.4-17.8l33.9,19.2l24.1-14.4l20.4,11.5l-24.1,14.4l57.3,32.5c6.8,3.8,12.7,6,17.8,6.3c5.1,0.4,10.1-1,15.2-4
				c3.9-2.3,5.9-5,6.2-8.1L2642.2,1561.7z"/>
			<path class="st21" d="M2659,1392.5l-52.6,31.5l48.3,27.3l48.5-29l22.5,12.8l-48.5,29l67.2,38.1l-23.4,14l-160.6-91l76-45.4
				L2659,1392.5z"/>
			<path class="st21" d="M2787.9,1371.4c-5.2,0.2-10.4,1.9-15.6,5c-6.7,4-8.9,9.4-6.5,16c2.4,6.6,9.6,13.3,21.6,20.1l54.9,31.1
				l-22.8,13.6l-114.7-65l22.8-13.6l23.6,13.4l0.4-0.2c-5.8-5.9-8.7-11.5-8.6-16.8c0.1-5.3,3-9.7,8.7-13.1c4.1-2.5,8-3.9,11.6-4.4
				L2787.9,1371.4z"/>
			<path class="st21" d="M2971.1,1366.6l-22.1,13.2l-17.9-10.2l-0.4,0.2c6.8,11.9,3.5,21.9-9.9,29.9c-9.9,5.9-20.7,8.8-32.4,8.7
				c-11.7-0.1-22.6-3-32.7-8.8c-21.7-12.3-23.3-25.9-5.1-41l25-20.6c-16.4-9.3-31.3-9.8-45-1.7c-12,7.2-18.1,16.3-18.3,27.4
				l-22.7-12.9c3.4-10.4,12.1-19.7,26-28c25.4-15.2,52.4-14.7,80.9,1.5L2971.1,1366.6z M2892.8,1347.9l-17.8,14.5
				c-5.6,4.5-8.7,8.4-9.3,11.9c-0.7,3.5,2.3,7.1,9,10.9c4.9,2.7,10.3,4.1,16.5,4c6.1-0.1,11.8-1.6,16.9-4.7c6.9-4.1,9.9-9.2,8.9-15
				c-1-5.9-5.7-11.2-14.2-16L2892.8,1347.9z"/>
			<path class="st21" d="M3149.3,1260.2l-22.8,13.6l-62.5-35.4c-12-6.8-22.2-10.8-30.6-12.1c-8.4-1.3-16.1,0.2-23.1,4.4
				c-6,3.6-7.6,8.5-5,14.8c2.6,6.3,8.7,12.2,18.2,17.6l62.1,35.2l-22.9,13.7l-64.6-36.6c-21.4-12.1-38.6-14.2-51.9-6.3
				c-6.2,3.7-8,8.5-5.5,14.5c2.5,6,8.8,11.9,19,17.7l62.1,35.1l-22.8,13.6l-114.7-65l22.8-13.6l18.1,10.3l0.4-0.2
				c-6.6-12.2-3-22.5,10.9-30.8c6.9-4.1,15.2-6.5,24.8-7.2c9.6-0.6,18.9,0.5,27.8,3.4c-8.4-13.4-5.1-24.6,9.6-33.4
				c22.1-13.2,48.8-11,79.9,6.6L3149.3,1260.2z"/>
			<path class="st21" d="M3211.9,1164.2l-68.6,41c10.9,5.9,21.9,8.8,33.1,8.8c11.2,0,21.6-2.9,31.2-8.6
				c10.7-6.4,16.9-14.4,18.6-23.9l20.9,11.9c-2.6,9.2-11.4,18.3-26.5,27.3c-14.8,8.8-31.6,12.8-50.4,12
				c-18.8-0.9-37.7-6.7-56.6-17.4c-17.8-10.1-27.8-21.1-29.7-33c-2-11.9,3.9-22,17.7-30.2c13.8-8.2,29.4-11.7,47-10.5
				c17.6,1.2,35.4,6.9,53.3,17L3211.9,1164.2z M3171.6,1167c-9.4-5.2-18.6-8.2-27.6-8.9c-9-0.7-16.8,1-23.5,5
				c-6.5,3.9-9.4,8.8-8.5,14.6c0.9,5.8,5.2,11.5,13,17.1L3171.6,1167z"/>
			<path class="st21" d="M3304.5,1034l85,82.7l-23.9,14.3l-96-33.1c-3.7-1.3-7.5-2.9-11.5-4.9l-0.4,0.2c2.4,1.5,5.1,3.7,8.1,6.6
				l58.1,56l-23.4,14l-144.3-47.3l23.6-14.1l100.9,35.9c3.1,1,6.7,2.7,11,4.9l0.7-0.4c-2.9-1.9-5.8-4.1-8.5-6.6l-62.1-58.8
				l21.4-12.8l101.1,36.2c3.2,1.1,6.9,2.7,11.1,4.8l0.7-0.4c-2.6-1.6-5.4-3.8-8.4-6.5l-65.1-57.7L3304.5,1034z"/>
			<path class="st21" d="M3482.6,1064.2c-15.5,9.3-33.3,13.6-53.2,13.1c-20-0.5-38.8-5.8-56.5-15.8c-19.3-10.9-29.5-22.3-30.7-34.2
				c-1.2-11.9,6.4-22.7,22.8-32.5c15.7-9.4,33.2-13.7,52.5-13c19.3,0.7,38.3,6.4,57,16.9c18.3,10.4,28.2,21.5,29.8,33.4
				C3505.8,1043.9,3498.5,1054.6,3482.6,1064.2z M3384.3,1007.3c-8.9,5.3-12.4,11.5-10.5,18.6c1.9,7.1,9.1,14.2,21.6,21.3
				c12,6.8,24.1,10.6,36.3,11.4c12.1,0.8,22.6-1.4,31.4-6.7c9-5.4,12.5-11.4,10.5-18.1c-2-6.7-9.2-13.6-21.8-20.7
				c-12.6-7.1-24.8-11.2-36.5-12.2C3403.6,999.7,3393.3,1001.9,3384.3,1007.3z"/>
			<path class="st21" d="M3523.8,931.7c-5.2,0.2-10.4,1.9-15.6,5c-6.7,4-8.9,9.4-6.5,16c2.4,6.6,9.6,13.3,21.6,20.1l54.9,31.1
				l-22.8,13.6l-114.7-65l22.8-13.6l23.6,13.4l0.4-0.2c-5.8-5.9-8.7-11.5-8.6-16.8c0.1-5.3,3-9.7,8.7-13.1c4.1-2.5,8-3.9,11.6-4.4
				L3523.8,931.7z"/>
			<path class="st21" d="M3721.1,918.5l-28.9,17.2l-94.2-7.9l-0.4,0.2l55.1,31.2l-22.9,13.7l-169.8-96.2l22.9-13.7l107.6,61l0.4-0.2
				l-15.6-51.8l27.4-16.4l13.8,56.2L3721.1,918.5z"/>
		</g>
	</g>
</g>
</svg>
